<?xml version="1.0" standalone="no"?>
<!DOCTYPE svg PUBLIC "-//W3C//DTD SVG 20010904//EN"
 "http://www.w3.org/TR/2001/REC-SVG-20010904/DTD/svg10.dtd">
<svg version="1.0" xmlns="http://www.w3.org/2000/svg"
 width="417.000000pt" height="598.000000pt" viewBox="0 0 417.000000 598.000000"
 preserveAspectRatio="xMidYMid meet">
<metadata>
Created by potrace 1.16, written by Peter Selinger 2001-2019
</metadata>
<g transform="translate(0.000000,598.000000) scale(0.100000,-0.100000)"
fill="#000000" stroke="none">
<path d="M1905 5303 c-80 -17 -150 -65 -183 -127 -9 -18 -20 -75 -25 -131 -12
-141 -11 -165 7 -209 14 -33 18 -37 32 -26 8 8 14 9 13 4 -4 -23 2 -36 16 -30
18 7 20 -5 3 -22 -9 -9 -8 -12 4 -12 10 0 22 -17 33 -47 9 -27 21 -55 25 -64
5 -10 4 -21 -2 -27 -7 -7 -4 -24 10 -55 16 -37 29 -49 76 -72 50 -24 65 -27
124 -23 81 6 123 26 152 73 19 31 20 38 8 48 -9 7 -18 21 -22 32 -5 17 -3 17
14 -4 14 -16 20 -19 20 -8 0 8 -12 24 -27 35 -20 14 -24 24 -18 38 4 10 10 41
12 69 3 27 9 53 14 56 5 3 7 13 3 22 -3 10 -1 17 5 17 6 0 11 9 11 19 0 22 20
40 20 19 1 -7 8 7 16 31 20 56 9 104 -24 109 -19 3 -22 10 -22 50 -1 65 -44
150 -93 183 -53 35 -155 61 -202 52z m191 -169 c21 -33 1 -64 -41 -64 -45 0
-48 -25 -2 -34 29 -5 77 -55 77 -80 0 -4 6 -14 14 -22 20 -20 9 -57 -16 -51
-11 3 -22 -1 -25 -9 -3 -9 -12 -13 -21 -9 -13 5 -13 3 1 -13 9 -10 17 -25 16
-33 0 -10 -2 -10 -6 -1 -2 6 -9 12 -14 12 -6 0 -7 -5 -3 -12 4 -7 -6 -2 -24
10 -21 15 -29 28 -26 40 5 14 4 15 -5 2 -6 -8 -8 -23 -5 -32 4 -14 0 -18 -18
-18 -46 0 -70 -12 -65 -31 4 -14 0 -19 -14 -19 -16 0 -18 3 -9 19 19 36 10 44
-17 17 -30 -31 -49 -22 -34 17 9 24 8 25 -17 22 -15 -2 -22 -2 -16 1 7 3 10
14 7 24 -4 15 0 20 16 20 12 0 20 -4 17 -9 -11 -17 18 -18 46 -2 33 19 42 40
29 73 -8 21 -16 25 -59 27 -42 2 -53 -2 -67 -21 l-17 -23 7 25 c4 14 18 36 31
51 31 33 30 38 -6 37 -34 -1 -47 8 -52 35 -3 15 6 18 72 21 52 2 84 8 104 21
20 13 30 15 35 7 5 -9 15 -9 39 0 18 7 32 16 32 21 0 14 22 2 36 -19z"/>
<path d="M2018 4073 c-50 -5 -81 -44 -76 -93 3 -22 -2 -46 -14 -65 -10 -16
-18 -47 -18 -68 l0 -39 110 4 c122 3 124 4 134 70 4 21 13 41 21 44 8 4 15 14
15 23 1 13 2 13 12 -3 8 -15 7 -22 -6 -31 -9 -7 -19 -26 -22 -43 -6 -28 -3
-33 20 -42 35 -13 162 -13 187 0 27 15 45 55 63 140 20 99 13 111 -62 108
l-57 -2 57 -3 c35 -3 58 -9 61 -17 5 -13 -23 -153 -38 -188 -10 -24 -40 -32
-124 -30 -85 2 -91 5 -91 38 0 22 4 24 45 24 25 0 45 -4 45 -10 0 -5 11 -10
25 -10 18 0 28 7 35 26 6 14 10 26 10 28 0 1 -30 2 -67 2 l-68 -1 2 48 1 49
-81 -7 c-91 -8 -97 -10 -97 -31 0 -16 26 -19 35 -4 3 6 22 10 41 10 51 0 84
-38 50 -57 -7 -4 -19 -31 -25 -59 -12 -51 -13 -52 -54 -58 -83 -11 -155 -6
-161 10 -14 35 21 104 52 104 9 0 7 6 -8 18 -18 14 -21 25 -16 45 10 43 31 55
108 61 134 11 143 13 68 13 -41 0 -92 -2 -112 -4z"/>
<path d="M1622 3898 c-19 -23 -123 -42 -192 -35 -59 7 -60 6 -60 -18 0 -14 -5
-25 -11 -25 -5 0 -7 -5 -4 -10 4 -6 1 -17 -5 -25 -7 -8 -9 -15 -4 -15 4 0 -1
-7 -12 -16 -10 -8 -13 -12 -5 -8 9 4 12 2 9 -7 -3 -8 -10 -14 -16 -14 -5 0
-14 -4 -19 -9 -5 -5 -3 -6 5 -2 22 13 6 -42 -23 -80 -14 -19 -23 -34 -20 -34
3 0 -2 -15 -12 -32 -9 -18 -18 -39 -20 -45 -10 -41 -12 -49 -12 -55 -1 -5 -8
-8 -17 -8 -15 0 -15 2 1 26 18 28 13 43 -8 25 -12 -10 -14 -26 -8 -64 0 -5 6
-5 11 -2 10 6 14 -13 11 -47 -1 -10 3 -18 9 -18 6 0 8 -5 5 -10 -4 -6 -10 -8
-15 -5 -5 3 -12 -6 -16 -20 -3 -14 -14 -30 -24 -35 -9 -5 -20 -23 -23 -40 -4
-19 -13 -30 -23 -30 -13 0 -14 -3 -4 -15 8 -10 9 -15 2 -15 -6 0 -9 -6 -6 -14
3 -8 0 -17 -6 -21 -6 -3 -9 -2 -8 3 3 9 -2 12 -17 12 -3 0 -1 -10 6 -22 9 -17
9 -20 -2 -16 -18 7 -24 -53 -6 -64 9 -6 9 -8 0 -8 -7 0 -10 -6 -7 -14 3 -7 -2
-21 -11 -30 -9 -9 -14 -16 -10 -16 3 0 1 -8 -4 -18 -6 -12 -6 -23 1 -33 8 -11
9 -10 4 4 -3 11 -2 16 4 12 13 -8 13 -35 1 -35 -10 0 -49 50 -49 63 0 5 -3 12
-7 15 -4 4 -6 3 -5 -3 1 -5 1 -12 0 -15 -1 -3 -3 -28 -3 -57 -2 -46 -1 -49 11
-30 12 21 12 20 10 -13 -3 -32 -21 -59 -42 -60 -4 0 -5 7 -2 16 6 15 4 15 -10
3 -13 -11 -15 -25 -11 -71 3 -32 2 -58 -1 -58 -4 0 -16 -13 -26 -28 -11 -15
-13 -21 -6 -14 19 17 29 15 26 -5 -2 -10 1 -21 6 -24 12 -8 -2 -69 -17 -69 -7
0 -15 -10 -19 -23 -4 -16 -12 -23 -28 -23 -15 1 -24 -7 -29 -24 -6 -21 -7 -22
-9 -5 -1 11 -3 28 -5 38 -3 15 1 18 17 14 26 -7 48 2 48 19 0 17 -12 18 -27 3
-7 -7 -12 -4 -16 10 -3 12 -2 19 2 17 4 -3 7 4 7 15 0 10 -1 19 -3 19 -1 0
-19 -14 -39 -32 -37 -32 -54 -64 -60 -108 -2 -23 -2 -24 11 -7 10 14 15 15 21
6 11 -18 16 -71 6 -65 -13 8 -40 -19 -44 -44 -2 -14 -9 -24 -16 -22 -7 1 -15
-5 -19 -14 -3 -9 -8 -12 -12 -5 -14 22 -27 -6 -23 -51 3 -35 8 -47 23 -51 10
-3 19 -1 19 5 0 5 5 6 12 2 7 -5 5 -11 -7 -21 -11 -7 -20 -23 -22 -36 -2 -12
-8 -35 -13 -52 -8 -26 -9 -23 -5 20 4 42 3 46 -6 25 -11 -25 -6 -191 7 -211 3
-6 15 -9 25 -6 24 6 40 -14 55 -71 l13 -47 0 37 c1 20 -4 49 -11 64 -10 22
-10 28 5 39 11 8 22 38 29 74 6 34 15 61 18 61 4 0 6 25 4 55 -4 66 12 74 21
11 5 -34 11 -43 22 -39 10 4 11 9 4 16 -17 17 -13 31 4 17 13 -11 14 -10 8 5
-3 10 -15 27 -25 37 -18 18 -26 64 -10 54 12 -7 11 28 0 35 -5 3 -2 9 7 12 10
5 14 3 9 -5 -4 -7 -3 -8 4 -4 7 4 12 18 12 32 0 14 13 59 29 102 17 42 33 91
37 107 4 17 14 46 23 65 8 19 16 53 17 75 1 22 3 47 3 55 1 8 10 -3 20 -24 11
-22 17 -46 14 -53 -3 -7 0 -20 6 -27 8 -10 9 -16 2 -21 -6 -3 -10 -20 -10 -38
2 -54 -9 -175 -17 -188 -4 -8 -3 -10 4 -5 7 4 12 1 12 -9 0 -24 41 -115 52
-115 5 0 7 3 5 8 -3 4 1 40 8 80 10 59 10 75 0 79 -11 3 -26 36 -22 46 0 1 -5
12 -12 25 -6 12 -8 22 -4 22 5 0 8 12 7 28 -1 28 11 52 28 52 5 0 7 -4 4 -9
-3 -5 1 -11 9 -15 8 -3 15 0 15 7 0 8 3 8 9 -2 7 -11 10 -10 13 5 5 29 52 -51
49 -85 -7 -75 -5 -106 7 -107 6 -1 14 -2 17 -3 3 0 -1 -11 -10 -24 -11 -18
-12 -31 -4 -60 5 -20 13 -37 17 -37 8 0 9 -13 14 -130 2 -36 6 -69 10 -75 3
-5 5 -29 3 -52 -2 -24 0 -43 4 -43 4 0 6 -15 4 -32 l-4 -33 19 24 c21 26 31
19 34 -26 1 -15 7 -31 13 -35 5 -4 -7 -8 -27 -8 -28 0 -38 4 -38 16 0 8 -4 12
-10 9 -5 -3 -10 -19 -10 -36 0 -30 -17 -38 -38 -17 -9 9 -12 9 -12 1 0 -7 5
-15 10 -18 6 -3 10 -11 10 -17 0 -7 -6 -6 -15 2 -8 7 -15 9 -16 4 0 -5 -4 0
-8 11 -5 14 -3 24 7 31 13 9 9 11 -16 10 -35 -1 -38 -6 -20 -24 9 -9 9 -12 0
-12 -7 0 -12 -4 -12 -10 0 -5 9 -10 21 -10 11 0 18 -4 15 -9 -4 -5 2 -7 13 -4
10 3 22 0 25 -6 4 -6 2 -11 -3 -11 -6 0 -11 -5 -11 -12 0 -6 10 -3 22 8 12 10
18 14 15 8 -4 -7 2 -14 12 -17 14 -3 18 -1 14 9 -3 8 0 14 6 14 20 0 12 -25
-21 -64 -26 -32 -29 -41 -20 -57 7 -10 12 -26 12 -34 0 -9 4 -14 9 -10 6 3 11
-12 13 -32 3 -43 -20 -123 -41 -139 -12 -10 -11 -13 6 -22 16 -9 27 -6 56 15
21 14 37 33 37 40 0 8 11 29 25 47 19 25 27 54 37 129 l12 96 43 7 c48 7 147
1 178 -11 18 -7 18 -6 5 6 -8 8 -48 26 -88 39 -41 13 -87 36 -103 51 -25 23
-29 35 -30 81 0 66 -7 127 -22 198 -6 30 -11 109 -11 175 -1 66 -5 125 -9 132
-11 18 -50 -24 -43 -45 4 -9 -3 -6 -14 8 -11 14 -20 30 -20 35 0 6 -4 4 -9 -4
-10 -15 -31 -7 -31 12 0 8 3 7 9 -2 19 -30 18 15 -2 64 -32 82 -35 98 -21 137
19 56 25 107 14 128 -7 13 -5 21 7 31 26 22 73 90 73 107 0 12 -4 12 -25 -2
-27 -18 -30 -12 -14 31 14 38 22 101 15 120 -6 15 -8 14 -21 -4 -8 -11 -16
-31 -19 -44 -6 -33 -36 -89 -47 -89 -5 0 1 24 12 53 12 28 30 75 41 102 23 59
45 95 112 190 68 96 151 283 160 360 8 73 38 139 84 183 21 21 32 40 30 54 -3
19 -5 19 -16 6z"/>
<path d="M2671 3893 c-35 -15 -119 -14 -153 1 -15 7 -14 -1 8 -49 16 -34 30
-89 35 -136 5 -44 15 -96 23 -117 32 -86 76 -183 113 -248 54 -96 93 -190 93
-223 0 -16 7 -34 15 -41 15 -12 15 -44 0 -57 -4 -5 -5 -2 -1 5 8 14 -3 16 -23
3 -11 -7 -13 -26 -9 -82 4 -52 2 -82 -8 -100 -11 -23 -10 -34 7 -83 12 -32 19
-70 16 -84 -27 -146 -63 -282 -74 -282 -2 0 -3 6 -2 13 1 6 1 20 0 30 -2 28
-21 9 -22 -21 0 -27 0 -27 -11 -4 -22 44 -31 24 -23 -50 13 -110 9 -177 -13
-238 -10 -30 -20 -71 -21 -90 -1 -19 -4 -44 -7 -55 -4 -14 -3 -16 4 -7 13 19
22 -16 11 -43 -4 -11 -9 -15 -10 -10 -1 6 -4 -5 -8 -23 l-6 -33 -22 20 c-12
12 -37 22 -56 23 -24 2 -33 8 -35 22 -1 19 -9 32 -16 25 -2 -2 -6 -19 -9 -36
-6 -29 -4 -33 16 -32 27 1 48 -4 65 -14 18 -12 15 -27 -5 -20 -12 5 -14 3 -8
-8 7 -12 6 -12 -7 -1 -14 11 -21 11 -40 1 -15 -9 -64 -13 -143 -12 -122 1
-141 3 -162 16 -14 9 -82 6 -88 -4 -11 -17 24 -40 73 -46 76 -9 82 -21 82
-171 0 -131 12 -208 63 -422 32 -136 39 -278 15 -307 -7 -8 -13 -46 -13 -86
-1 -40 -5 -94 -10 -120 -7 -45 -5 -51 22 -80 16 -18 35 -44 42 -59 8 -15 27
-32 43 -39 57 -23 209 -5 236 29 27 36 6 95 -45 121 -29 15 -33 14 -26 -6 3
-12 -1 -9 -12 6 -13 17 -15 25 -6 30 9 6 8 11 -4 21 -8 7 -15 17 -15 22 0 5
-6 16 -14 23 -27 28 -28 335 -1 565 18 158 17 309 -3 361 -6 14 -13 43 -16 65
-4 21 -9 47 -12 58 -3 10 -2 17 2 15 5 -2 26 -11 46 -18 40 -16 47 -26 54 -81
14 -119 25 -180 34 -204 5 -15 10 -37 10 -49 0 -13 9 -29 19 -37 11 -7 18 -17
16 -21 -3 -4 1 -12 9 -18 10 -8 23 -4 55 19 22 17 41 33 41 38 0 4 10 19 23
34 l23 27 30 -24 c16 -13 35 -24 41 -25 7 0 15 -12 19 -27 10 -49 12 -51 45
-58 22 -5 34 -4 37 4 2 6 9 11 16 11 19 0 81 71 99 115 42 99 64 346 32 359
-8 3 -15 13 -15 22 0 13 3 14 13 5 14 -11 14 -2 -10 159 -6 37 -4 78 5 125 15
84 7 182 -14 165 -7 -7 -14 -23 -16 -37 -4 -38 -23 -39 -37 -1 -7 18 -17 41
-22 50 -5 10 -9 27 -9 37 0 11 -9 28 -20 39 -23 21 -43 68 -59 137 -11 47 -10
55 15 110 20 45 27 78 29 132 1 40 -2 70 -7 67 -12 -7 -16 11 -22 91 -6 75
-13 112 -44 245 -11 47 -25 117 -31 155 -19 125 -43 218 -61 238 -13 13 -18
31 -16 55 2 29 -4 42 -31 71 -18 20 -31 42 -28 49 3 7 0 10 -6 7 -6 -4 -10 -1
-8 6 3 28 -1 50 -9 45 -5 -3 -8 5 -7 17 4 49 -8 55 -64 30z"/>
<path d="M1950 3668 c0 -12 -8 -18 -24 -18 -14 0 -28 -4 -31 -10 -3 -5 -19
-10 -35 -10 -56 0 -77 -23 -45 -50 8 -7 12 -17 8 -24 -3 -6 -2 -8 2 -3 5 4 16
0 25 -8 16 -15 96 -15 235 0 22 2 50 4 63 4 12 1 22 4 22 9 0 8 -63 6 -168 -6
-72 -8 -73 -8 -93 19 -10 15 -19 32 -19 38 0 17 31 13 46 -6 12 -16 13 -16 14
-2 0 17 45 25 183 34 59 3 92 15 46 15 l-24 1 25 14 c33 19 12 19 -35 0 -25
-11 -41 -13 -49 -6 -17 15 -66 16 -98 3 -23 -9 -29 -8 -37 6 -10 16 -10 16
-11 0z"/>
<path d="M1702 2951 c-21 -37 -29 -71 -16 -71 3 0 19 14 36 30 16 17 36 30 44
30 22 0 80 -41 100 -72 10 -15 26 -30 34 -32 8 -3 -5 -3 -30 0 -34 4 -52 13
-72 36 -21 24 -32 29 -52 24 -34 -8 -33 -24 2 -36 15 -6 44 -29 64 -53 34 -37
43 -42 85 -44 27 0 61 -4 77 -9 28 -7 29 -6 23 25 -8 38 4 40 50 9 22 -16 31
-28 27 -40 -7 -24 15 -65 26 -48 6 9 11 2 15 -22 5 -27 14 -39 39 -51 18 -8
63 -41 100 -72 63 -54 67 -55 60 -29 -4 16 -11 37 -16 47 -7 14 -4 17 16 17
14 0 36 -4 49 -9 22 -9 24 -7 25 22 0 19 -8 42 -24 60 -13 15 -24 32 -24 36 0
5 -17 20 -37 34 -50 34 -134 45 -169 23 -23 -16 -24 -15 -21 6 1 17 -3 23 -15
22 -10 -1 -15 2 -13 7 3 4 -8 18 -25 30 -16 13 -32 30 -35 40 -4 11 -21 20
-48 24 -64 11 -171 53 -219 86 -14 11 -28 19 -30 19 -2 0 -14 -17 -26 -39z"/>
<path d="M2437 2964 c-3 -3 -1 -17 4 -31 11 -30 5 -41 -13 -25 -15 12 -36 -1
-54 -33 -16 -29 -33 -29 -44 0 -9 23 -14 26 -40 21 -17 -3 -43 -9 -59 -12 -33
-6 -46 -41 -29 -83 l10 -26 9 24 c6 16 5 28 -3 39 -11 13 -11 14 1 7 8 -5 38
-7 65 -6 45 2 54 -1 80 -28 17 -17 36 -31 43 -31 7 0 13 -4 13 -9 0 -4 -25 -9
-55 -9 -40 0 -61 5 -80 20 -20 15 -29 18 -38 9 -8 -8 -8 -11 1 -12 7 -1 16 -2
20 -3 4 0 26 -18 48 -38 29 -28 48 -38 72 -38 18 0 31 4 27 9 -3 6 7 6 27 0
18 -5 34 -9 35 -9 8 0 1 31 -13 58 -8 18 -13 36 -9 42 9 15 7 152 -2 161 -5 5
-12 7 -16 3z"/>
<path d="M1600 2861 c-23 -44 -12 -79 56 -172 36 -50 69 -100 73 -112 5 -13 7
5 3 45 l-5 68 32 -11 c17 -6 37 -21 43 -32 11 -21 11 -21 19 -2 13 33 10 82
-6 95 -9 7 -12 22 -9 39 8 37 -16 55 -106 80 -91 25 -87 25 -100 2z"/>
<path d="M2015 2748 c-11 -7 -26 -18 -34 -25 -14 -15 -65 -9 -87 8 -8 6 -10 2
-7 -15 4 -17 -5 -35 -31 -64 -20 -22 -36 -43 -36 -47 0 -5 -7 -16 -15 -25 -14
-15 -11 -16 36 -10 l51 7 -6 -31 c-8 -42 -49 -76 -92 -76 -39 0 -45 -18 -14
-40 23 -17 27 -50 5 -50 -8 0 -15 7 -15 15 0 8 -4 15 -10 15 -5 0 -7 -7 -4
-15 11 -29 -8 -39 -27 -14 -13 17 -19 20 -19 8 0 -24 -38 -59 -63 -59 -22 0
-23 3 -17 54 3 30 2 52 -2 50 -4 -3 -8 -11 -8 -18 0 -8 -8 -24 -18 -36 -16
-20 -22 -21 -55 -12 -32 9 -37 8 -38 -6 0 -9 -6 -48 -13 -87 -15 -81 -11 -98
14 -60 20 31 23 26 35 -56 7 -59 -6 -94 -45 -114 -28 -14 -30 -14 -31 2 0 11
-3 13 -6 5 -2 -6 -9 -10 -13 -7 -5 3 -7 -3 -5 -15 4 -21 24 -60 25 -48 0 4 15
1 33 -6 19 -8 42 -10 57 -5 24 7 24 7 -5 8 -29 2 -29 2 -11 16 11 8 28 15 38
15 24 0 90 -34 107 -54 21 -25 201 -20 201 5 0 5 -7 9 -15 9 -20 0 -19 16 1
24 23 9 25 8 22 -11 -2 -12 4 -18 20 -19 18 -1 22 4 23 30 1 17 0 38 -1 46 -1
8 2 12 6 7 7 -6 11 -26 13 -64 1 -7 10 -13 22 -13 14 0 19 -5 17 -17 -3 -19
-74 -38 -178 -48 -117 -11 -106 5 -102 -152 1 -76 9 -169 16 -208 17 -85 110
-445 131 -504 9 -26 15 -78 15 -126 0 -77 -2 -84 -29 -112 -16 -17 -50 -39
-75 -48 -26 -10 -43 -21 -37 -24 15 -10 2 -51 -14 -45 -24 10 -26 -14 -3 -39
17 -18 42 -27 98 -36 41 -6 84 -9 95 -7 11 2 24 5 28 5 4 1 29 21 55 45 26 24
61 49 77 57 18 9 31 23 33 38 3 16 0 21 -9 16 -9 -6 -11 -2 -7 12 3 11 -1 28
-8 38 -8 10 -14 37 -14 60 0 23 -11 69 -25 103 -29 72 -34 130 -40 467 -2 176
-7 243 -20 285 -18 61 -13 171 9 193 7 7 16 32 20 57 4 25 8 54 10 65 2 11 5
67 6 125 2 92 3 100 11 60 5 -25 17 -83 26 -130 9 -46 18 -79 21 -72 3 10 9 9
25 -5 19 -17 19 -16 -2 15 -22 32 -25 65 -6 61 11 -1 43 -92 44 -123 1 -15 -2
-16 -14 -6 -9 8 -15 9 -15 2 0 -6 5 -14 10 -17 6 -3 10 -15 10 -26 0 -17 2
-18 14 -7 11 11 12 27 4 73 -9 58 -6 85 9 85 15 0 43 -114 37 -151 -5 -28 -3
-36 9 -36 8 0 13 5 11 11 -3 7 2 20 10 31 12 15 16 16 16 5 0 -12 4 -10 15 4
15 19 15 19 15 -2 0 -12 -9 -26 -20 -32 -40 -22 -19 -30 75 -30 l96 0 -3 34
c-2 33 17 70 32 61 8 -5 71 117 64 124 -2 2 -13 -4 -24 -14 -15 -14 -23 -15
-34 -6 -11 10 -16 7 -24 -16 l-10 -28 -7 32 c-4 17 -18 42 -31 54 -30 28 -30
39 0 39 21 0 24 5 29 68 13 127 11 137 -23 139 -37 3 -38 -13 -4 -42 27 -23
28 -61 1 -52 -6 2 -18 -3 -24 -12 -11 -14 -13 -13 -19 7 -3 12 -10 22 -15 22
-5 0 -9 10 -9 23 0 12 -4 28 -9 35 -4 7 -6 -11 -3 -42 4 -48 1 -57 -21 -80
-15 -14 -37 -26 -50 -26 -23 0 -24 3 -20 53 4 51 4 51 -10 22 -23 -48 -48 -65
-93 -62 -33 2 -39 5 -39 25 0 29 38 30 58 1 15 -20 15 -20 36 9 25 35 27 52 6
52 -15 0 -69 49 -72 66 -1 5 -5 23 -9 39 -5 25 -4 28 7 18 7 -7 19 -13 26 -13
10 0 10 6 -3 25 -12 18 -15 36 -10 66 l7 41 -24 -27 c-18 -21 -28 -26 -45 -21
-33 11 -26 34 15 53 46 22 51 42 23 96 -49 95 -60 117 -63 117 -1 0 -11 -6
-22 -12z"/>
<path d="M2431 2641 c3 -20 -18 -128 -31 -158 -11 -26 1 -30 23 -9 8 8 23 14
34 13 18 -1 19 -5 11 -40 -9 -42 -5 -57 18 -57 9 0 14 -6 11 -12 -2 -7 -13
-13 -25 -12 -16 0 -19 -4 -13 -20 4 -12 6 -50 5 -85 -3 -51 -1 -61 9 -49 7 8
20 18 30 21 22 8 24 -25 1 -43 -25 -21 -35 -48 -28 -75 l6 -26 12 23 c6 13 21
23 31 23 31 0 34 111 5 169 -11 24 -20 52 -19 62 6 58 -1 94 -18 94 -10 0 -14
4 -8 8 10 7 18 132 10 167 -5 26 -67 32 -64 6z"/>
<path d="M1013 2382 c-17 -37 -23 -114 -10 -130 7 -9 6 -11 -8 -6 -15 6 -16 5
-4 -15 8 -11 18 -21 22 -21 5 0 5 -10 1 -22 -4 -13 -7 -33 -6 -45 1 -14 -3
-22 -11 -20 -6 1 -11 -4 -10 -10 2 -7 -2 -13 -7 -13 -7 0 -7 -6 0 -19 13 -25
13 -61 0 -61 -5 0 -7 -7 -3 -15 3 -10 -5 -24 -21 -38 -29 -25 -34 -47 -11 -47
8 0 14 -3 13 -7 0 -5 3 -17 7 -27 6 -13 4 -21 -3 -24 -7 -2 -15 -22 -18 -44
-6 -32 -10 -39 -25 -35 -12 3 -19 0 -19 -8 0 -7 13 -16 29 -20 25 -5 31 -12
36 -45 4 -22 2 -55 -5 -74 -6 -20 -9 -49 -7 -65 3 -19 1 -30 -6 -28 -6 1 -12
-14 -13 -35 -1 -21 -7 -45 -14 -54 -12 -14 -14 -14 -23 2 -8 13 -11 14 -18 3
-6 -10 -11 -5 -20 19 -6 17 -15 32 -21 32 -5 0 -7 4 -4 9 3 5 -2 15 -11 22
-14 12 -15 12 -10 -1 3 -8 11 -32 18 -52 6 -21 22 -47 35 -59 l23 -21 35 22
c20 12 36 26 36 30 0 5 14 25 31 45 24 27 37 59 55 132 13 53 24 104 24 114 0
11 5 16 13 13 8 -3 22 -37 31 -77 18 -76 52 -157 66 -157 4 0 -1 24 -12 53
-11 28 -24 66 -29 82 -4 17 -11 41 -15 54 -6 20 -4 23 9 18 9 -3 19 -2 22 2 2
5 -4 11 -14 14 -14 3 -18 11 -14 26 3 11 9 18 14 15 5 -3 9 5 9 16 0 16 -5 20
-15 16 -12 -4 -15 4 -15 39 0 30 -4 45 -13 45 -9 0 -11 12 -9 40 2 22 -1 47
-7 54 -8 10 -9 16 -2 21 11 6 8 76 -6 145 -4 19 -6 39 -4 44 1 5 -2 12 -7 15
-7 5 -20 57 -45 174 -1 4 -8 -5 -14 -21z"/>
</g>
</svg>
