<?xml version="1.0" standalone="no"?>
<!DOCTYPE svg PUBLIC "-//W3C//DTD SVG 20010904//EN"
 "http://www.w3.org/TR/2001/REC-SVG-20010904/DTD/svg10.dtd">
<svg version="1.0" xmlns="http://www.w3.org/2000/svg"
 width="3000.000000pt" height="2000.000000pt" viewBox="0 0 3000.000000 2000.000000"
 preserveAspectRatio="xMidYMid meet">
<metadata>
Created by potrace 1.16, written by Peter Selinger 2001-2019
</metadata>
<g transform="translate(0.000000,2000.000000) scale(0.100000,-0.100000)"
fill="#000000" stroke="none">
<path d="M20760 18746 c-25 -13 -124 -51 -220 -84 -371 -128 -420 -167 -420
-329 0 -46 -7 -99 -16 -126 -32 -93 -139 -182 -274 -226 -92 -30 -128 -55
-150 -104 -25 -54 -25 -120 0 -238 36 -170 21 -392 -31 -463 -16 -22 -27 -41
-25 -44 3 -2 28 14 58 36 59 45 113 69 232 102 183 51 327 134 454 262 145
147 195 242 282 544 54 186 100 418 100 505 0 44 29 125 55 153 14 15 25 29
25 32 0 10 -27 2 -70 -20z"/>
<path d="M18468 18423 c-38 -20 -65 -40 -61 -46 3 -5 2 -7 -4 -4 -13 8 -55
-22 -48 -34 3 -5 0 -6 -8 -3 -13 5 -52 -34 -120 -117 -46 -57 -148 -233 -142
-247 2 -7 1 -10 -4 -7 -9 5 -27 -32 -23 -47 1 -5 -2 -8 -7 -8 -13 0 -93 -189
-85 -202 5 -7 3 -8 -6 -3 -10 6 -12 4 -7 -9 4 -9 3 -15 -2 -12 -9 6 -46 -70
-44 -91 0 -7 -2 -11 -6 -8 -7 4 -37 -56 -86 -168 -9 -21 -14 -45 -11 -53 3 -8
2 -13 -3 -10 -5 3 -13 -11 -19 -32 -32 -119 -44 -166 -46 -185 -2 -12 -6 -29
-9 -37 -3 -8 -15 -58 -28 -110 -27 -117 -90 -312 -130 -403 -17 -37 -27 -73
-23 -80 4 -6 3 -8 -1 -4 -5 4 -15 -3 -22 -15 -11 -20 -12 -10 -7 62 13 170
-29 348 -129 551 l-52 107 7 118 c4 76 14 142 27 183 11 36 17 69 14 74 -3 6
-1 7 5 3 6 -3 14 3 17 15 4 12 23 48 42 81 30 51 33 61 21 76 -11 15 -11 15 3
5 13 -10 30 3 109 80 52 51 98 91 103 89 5 -1 6 2 2 8 -7 11 -99 -31 -111 -51
-5 -8 -3 -9 6 -4 8 5 11 4 6 -3 -4 -6 -13 -9 -20 -6 -23 9 -120 -110 -173
-213 -57 -111 -81 -184 -90 -279 -8 -91 -25 -59 -30 60 -3 66 1 119 16 195 11
57 18 108 14 114 -3 6 -1 7 5 3 8 -5 12 0 12 13 0 30 -17 26 -33 -6 -76 -153
-66 -399 23 -590 56 -118 119 -272 142 -345 20 -63 23 -94 23 -223 -1 -163
-14 -239 -61 -328 -13 -26 -22 -53 -18 -59 4 -6 3 -8 -3 -5 -13 8 -46 -39 -38
-53 3 -5 0 -12 -6 -16 -8 -5 -9 -3 -4 6 6 9 4 11 -4 6 -7 -5 -10 -14 -7 -22 3
-8 1 -13 -3 -11 -11 3 -151 -209 -144 -217 4 -3 1 -6 -5 -6 -16 0 -88 -109
-132 -200 -21 -41 -45 -82 -54 -89 -21 -18 -20 -31 2 -31 10 0 33 17 50 39 24
29 28 41 19 50 -9 9 -8 11 4 6 19 -7 94 99 83 118 -4 7 -3 8 1 4 5 -4 44 27
87 70 65 65 75 79 65 92 -10 14 -10 14 5 3 14 -12 24 -7 72 32 30 24 76 57
101 71 25 15 42 32 38 37 -3 6 -1 8 4 5 6 -4 38 6 70 22 32 16 100 42 150 57
51 16 89 32 86 38 -3 5 -1 6 5 2 16 -10 93 15 85 27 -3 6 -1 7 4 4 13 -8 73
12 73 24 0 11 6 12 -87 -6 -93 -18 -223 -55 -223 -64 0 -4 -9 -7 -19 -8 -48
-4 -292 -144 -350 -201 -47 -46 13 59 91 160 17 21 26 43 22 49 -4 7 -3 9 3 6
14 -9 57 39 48 53 -4 6 -1 9 7 8 7 -2 12 3 10 10 -1 8 1 11 6 8 12 -7 104 88
95 98 -4 4 0 4 8 1 9 -3 22 1 29 10 11 13 10 15 -6 9 -15 -5 -16 -4 -4 4 8 6
17 9 21 6 4 -2 35 14 69 35 60 39 204 101 234 101 8 0 17 4 20 8 7 12 160 -6
251 -30 44 -11 88 -21 98 -22 9 0 17 -4 17 -7 0 -4 10 -11 23 -14 12 -4 52
-20 89 -36 37 -16 74 -26 85 -23 13 4 15 3 4 -4 -18 -13 65 -41 145 -49 48 -4
70 -1 107 15 26 12 47 23 47 25 0 2 -44 4 -97 4 -88 0 -109 3 -203 37 -58 21
-113 38 -122 39 -9 1 -15 4 -13 8 4 5 -22 15 -85 34 -3 1 -12 4 -20 8 -34 14
-101 28 -110 22 -5 -3 -11 -1 -15 5 -3 5 -24 10 -45 10 -21 0 -42 5 -46 12 -4
6 -3 8 3 5 5 -3 54 7 108 23 54 17 101 30 104 30 2 0 -4 7 -15 16 -18 14 -18
15 4 4 18 -9 31 -9 53 0 28 12 170 9 269 -6 19 -2 79 -11 132 -18 54 -8 139
-28 190 -44 140 -46 256 -72 318 -72 67 0 156 24 168 46 5 9 13 15 18 14 5 -1
10 3 12 8 2 6 -16 3 -40 -6 -62 -22 -235 -21 -318 3 -36 10 -72 19 -80 19 -8
1 -23 7 -34 12 -14 9 -3 13 59 23 129 21 266 78 264 111 0 10 -2 11 -6 2 -2
-6 -8 -10 -13 -7 -4 3 -59 -11 -121 -30 -134 -42 -273 -62 -344 -50 l-50 8 65
14 c36 7 67 18 68 23 2 6 8 8 12 5 19 -12 253 112 243 128 -3 6 -1 7 6 3 14
-9 71 30 71 50 0 19 -3 18 -71 -12 -51 -23 -57 -29 -47 -42 11 -13 10 -14 -6
-5 -16 9 -37 2 -108 -34 -184 -91 -237 -102 -422 -87 l-77 7 95 51 c119 64
259 163 250 178 -4 7 -2 8 5 4 7 -5 37 18 76 58 62 63 77 86 55 86 -17 0 -60
-31 -55 -39 2 -4 -2 -8 -9 -8 -20 0 -165 -107 -159 -117 4 -5 2 -6 -4 -3 -12
8 -65 -27 -56 -37 5 -4 3 -6 -2 -4 -16 5 -166 -93 -158 -105 3 -5 2 -7 -4 -4
-6 4 -40 -9 -76 -28 -37 -18 -61 -35 -54 -38 6 -2 1 -4 -13 -4 -14 0 -51 -10
-84 -22 -80 -30 -101 -24 -46 14 83 57 250 283 250 338 0 40 -19 19 -117 -125
-32 -49 -48 -80 -41 -84 7 -5 8 -2 3 6 -5 8 -4 11 3 6 6 -4 8 -14 5 -22 -5
-12 -7 -13 -14 -3 -6 10 -21 -1 -58 -38 -28 -29 -71 -64 -96 -79 -34 -19 -44
-31 -40 -43 5 -13 4 -13 -6 -4 -10 10 -24 6 -68 -17 -31 -16 -85 -36 -121 -45
-152 -39 -303 -117 -397 -208 -18 -17 -34 -29 -36 -26 -2 2 27 67 64 144 38
77 67 148 65 158 -2 9 0 15 4 12 5 -3 23 38 40 91 17 54 49 128 71 166 22 37
37 73 33 80 -4 7 -3 8 4 4 7 -4 12 -1 12 7 0 7 34 47 75 88 66 65 94 102 65
84 -15 -9 -12 1 4 14 11 9 16 9 22 0 5 -8 3 -9 -6 -4 -9 6 -11 4 -6 -4 10 -16
48 16 39 33 -3 6 -3 8 2 4 4 -4 22 4 39 17 53 40 107 48 251 39 182 -12 302
-11 317 4 9 9 8 12 -5 12 -9 0 -85 7 -169 16 -84 9 -176 14 -205 12 -131 -11
29 41 225 73 72 12 132 25 132 30 0 9 -145 2 -225 -12 -147 -25 -241 -70 -383
-182 -45 -35 -72 -52 -68 -41 4 10 8 24 9 29 1 6 5 12 8 15 3 3 30 41 59 85
29 44 56 82 59 85 16 14 66 86 63 92 -1 5 4 7 11 5 6 -1 11 4 9 11 -1 8 1 11
6 8 12 -7 54 38 45 48 -4 4 -1 5 7 2 9 -4 29 7 48 24 17 17 32 29 32 26 0 -3
11 -1 25 4 72 28 151 30 271 10 66 -11 152 -29 192 -40 40 -11 78 -18 83 -15
5 4 9 2 9 -3 0 -13 78 -34 93 -26 6 4 8 3 4 -1 -10 -11 111 -67 127 -58 6 3 8
2 3 -2 -4 -5 11 -19 34 -32 40 -22 69 -32 39 -13 -8 5 -10 10 -5 10 15 0 37
-16 35 -26 -1 -5 29 -20 67 -34 87 -31 233 -36 273 -7 13 9 22 17 20 18 -3 0
-52 2 -110 3 -127 4 -182 20 -318 92 -56 30 -107 52 -112 49 -6 -3 -10 -2 -10
4 0 13 -97 44 -111 35 -7 -4 -9 -3 -6 3 4 7 -8 14 -31 18 -20 4 -48 9 -62 12
-14 3 -61 11 -105 19 l-80 13 100 -5 c308 -15 424 -16 495 -5 41 7 77 15 80
19 3 4 14 8 26 9 31 3 74 21 74 31 0 11 -22 12 -100 1 -75 -10 -250 -21 -250
-15 0 2 27 14 60 26 33 12 60 27 60 32 0 5 4 7 9 3 5 -3 16 2 25 10 8 9 17 14
20 13 2 -2 17 6 33 18 15 11 31 20 34 20 12 -2 39 26 33 35 -3 5 2 6 10 3 16
-6 40 28 28 42 -4 5 0 3 8 -3 12 -9 28 -1 80 44 36 31 67 60 69 66 5 12 -53
-21 -82 -48 -12 -11 -24 -19 -27 -19 -12 3 -69 -44 -62 -51 4 -5 2 -5 -5 -1
-6 3 -39 -12 -73 -33 -93 -61 -196 -108 -285 -133 -71 -19 -105 -22 -316 -22
-178 -1 -236 2 -236 11 0 7 3 10 7 8 11 -7 90 27 85 35 -3 5 3 6 13 3 11 -2
25 1 33 9 8 7 19 13 24 13 24 0 135 39 135 47 0 5 4 7 10 3 5 -3 62 13 127 36
65 22 126 43 135 46 10 3 16 9 13 13 -3 4 1 8 8 7 34 -1 48 4 41 15 -4 7 -3 8
5 4 15 -10 66 23 55 34 -8 8 -168 -21 -204 -37 -22 -9 -100 -11 -94 -1 11 17
-14 7 -32 -13 -18 -20 -115 -69 -136 -69 -24 0 -267 -124 -261 -133 3 -6 1 -7
-5 -3 -6 4 -24 -1 -39 -12 -16 -10 -60 -39 -98 -65 -80 -52 -230 -201 -220
-217 4 -6 1 -9 -6 -8 -13 3 -82 -89 -119 -157 -12 -22 -35 -62 -51 -90 -31
-54 -36 -70 -17 -59 7 5 8 3 3 -5 -5 -9 -11 -9 -17 -3 -29 29 92 362 176 485
15 21 23 43 20 49 -4 6 -2 8 3 5 14 -9 37 19 27 34 -4 7 -3 9 3 6 13 -8 46 27
36 38 -5 4 -3 5 3 2 6 -3 35 19 65 49 73 75 148 134 306 241 73 50 130 92 128
95 -3 3 1 5 8 5 19 0 97 54 91 64 -3 5 1 6 8 4 17 -7 62 40 54 54 -6 9 -86
-26 -156 -68 -8 -5 -51 -31 -95 -57 -104 -62 -166 -109 -157 -119 4 -5 2 -5
-4 -2 -15 8 -56 -22 -48 -35 4 -7 2 -8 -5 -4 -14 9 -164 -121 -155 -135 3 -5
0 -8 -8 -7 -7 2 -12 -3 -10 -10 1 -8 -2 -11 -6 -8 -11 7 -44 -28 -37 -37 3 -4
2 -5 -1 -2 -4 2 -14 0 -24 -5 -12 -6 -17 -5 -17 5 0 8 4 12 8 9 4 -2 13 4 18
15 14 26 14 34 -1 25 -7 -4 -8 -3 -4 5 4 6 11 9 15 7 4 -3 25 32 47 76 21 45
54 106 71 136 18 30 30 58 27 63 -3 5 -2 8 3 7 5 -2 26 15 48 37 22 21 35 36
28 32 -13 -8 -12 18 2 30 4 4 5 3 1 -4 -13 -24 15 -23 46 0 102 76 275 139
460 167 139 21 156 25 201 42 50 19 31 31 -40 24 -188 -19 -404 -71 -505 -122
-26 -13 -50 -24 -54 -24 -12 0 67 67 124 105 85 58 62 63 -40 8z"/>
<path d="M19105 18279 c-28 -35 -49 -68 -47 -72 1 -5 -2 -6 -7 -3 -10 7 -33
-18 -26 -27 3 -4 2 -5 -2 -2 -11 8 -43 -27 -36 -39 3 -6 3 -8 -2 -4 -8 7 -25
-6 -129 -99 -38 -34 -47 -47 -36 -53 9 -6 42 11 103 53 101 71 150 99 225 131
29 12 50 24 48 27 -2 2 5 4 17 5 12 0 49 8 82 17 32 10 90 17 127 17 37 0 68
4 68 9 0 12 -29 23 -41 15 -5 -3 -9 0 -9 7 0 19 -146 5 -212 -21 -33 -13 -55
-27 -51 -33 3 -6 1 -7 -5 -3 -6 3 -32 -5 -57 -20 -26 -14 -49 -24 -51 -21 -2
2 7 17 20 32 32 38 78 123 74 136 -2 6 -26 -18 -53 -52z"/>
<path d="M14059 18287 c-175 -60 -266 -205 -276 -443 -8 -174 29 -386 96 -545
l28 -67 -56 42 c-69 51 -107 65 -192 73 -80 7 -148 -8 -248 -53 -41 -19 -79
-34 -86 -34 -7 0 -37 -11 -66 -24 -30 -13 -91 -36 -137 -52 -62 -21 -81 -31
-77 -42 4 -11 2 -12 -8 -4 -7 6 -24 9 -38 5 -22 -5 -21 -3 8 19 18 14 29 29
25 33 -4 5 -1 5 6 0 16 -9 84 53 75 68 -3 6 -2 7 4 4 16 -10 137 128 127 144
-3 5 0 8 6 7 12 -3 130 159 130 177 0 6 -16 -7 -35 -29 -19 -21 -32 -43 -28
-49 3 -5 1 -7 -5 -3 -6 3 -19 -5 -31 -19 -11 -15 -59 -69 -108 -122 -48 -52
-91 -100 -94 -105 -4 -5 -15 -15 -26 -21 -11 -7 -42 -29 -69 -49 -27 -21 -74
-50 -104 -65 -30 -16 -58 -32 -61 -36 -3 -4 -86 -28 -185 -52 -98 -24 -203
-53 -233 -64 -30 -12 -56 -19 -58 -17 -3 2 16 21 41 42 25 20 42 42 39 47 -3
6 -1 7 6 3 6 -4 28 5 49 21 20 16 102 71 182 123 151 99 286 196 309 223 19
24 5 38 -24 25 -14 -6 -25 -15 -25 -20 0 -4 -3 -7 -7 -6 -16 4 -53 -14 -48
-23 3 -5 -2 -6 -11 -2 -12 4 -15 3 -10 -5 4 -7 2 -10 -6 -7 -7 3 -38 -11 -68
-30 -30 -18 -56 -32 -59 -30 -8 9 86 122 179 215 52 52 93 99 92 103 -1 5 2 6
7 3 5 -3 39 14 76 39 36 25 71 45 76 45 6 0 8 4 5 9 -3 5 0 8 7 7 24 -2 157
47 151 56 -8 12 -101 2 -155 -17 -73 -26 -205 -127 -193 -147 4 -6 3 -8 -3 -5
-5 3 -17 -3 -26 -14 -9 -10 -25 -19 -34 -19 -15 0 -16 2 -3 10 13 8 13 12 1
32 -13 21 -13 22 2 10 14 -12 18 -7 31 40 23 85 27 108 18 108 -14 0 -32 -48
-25 -67 4 -10 2 -14 -4 -10 -13 8 -26 -20 -16 -36 3 -7 2 -9 -2 -4 -12 10 -56
-73 -50 -94 3 -9 1 -20 -4 -24 -7 -3 -8 0 -5 9 14 37 -8 11 -52 -61 -27 -43
-59 -92 -72 -110 -13 -18 -20 -37 -16 -44 4 -7 3 -9 -3 -6 -5 3 -23 -16 -39
-43 -16 -27 -32 -50 -35 -50 -16 0 -178 -133 -176 -143 1 -7 -4 -11 -12 -9
-18 4 -62 -38 -54 -51 3 -6 1 -7 -6 -3 -16 10 -185 -160 -175 -176 4 -6 3 -8
-4 -5 -12 8 -95 -103 -144 -193 -50 -94 -94 -214 -133 -364 l-34 -131 -1 140
c0 169 19 301 60 420 17 50 31 95 33 100 1 6 4 12 7 15 14 14 69 128 65 133
-3 4 -2 5 1 2 10 -7 55 65 48 77 -4 6 -2 8 3 5 13 -8 26 20 16 35 -3 6 -1 8 5
4 13 -8 134 137 130 156 -2 7 2 12 9 11 16 -3 85 78 79 94 -3 7 1 10 7 7 15
-5 139 135 131 148 -3 4 2 8 10 8 8 0 24 13 36 30 20 29 20 50 -1 50 -13 0
-281 -262 -274 -268 3 -3 -4 -11 -14 -19 -30 -21 -163 -202 -156 -212 3 -5 0
-13 -6 -17 -8 -5 -10 -2 -5 7 18 37 -34 -42 -76 -114 l-48 -82 3 56 c1 31 5
55 10 52 4 -2 7 5 7 16 0 65 65 292 98 341 9 14 17 32 17 40 0 8 3 13 6 10 10
-9 40 22 35 36 -3 8 0 11 10 7 12 -5 19 7 15 30 0 4 3 6 8 5 14 -4 82 53 75
63 -3 5 0 8 8 7 7 -2 12 3 10 10 -1 8 2 11 8 7 12 -8 82 44 74 56 -3 5 3 6 12
2 13 -5 15 -3 9 7 -5 9 -4 11 3 6 6 -4 29 5 52 19 22 14 62 34 88 44 146 59
272 128 272 151 0 4 -9 6 -20 3 -11 -3 -17 -9 -14 -14 3 -5 -1 -6 -9 -3 -20 7
-258 -96 -250 -108 4 -7 1 -8 -6 -3 -24 14 -261 -144 -253 -169 2 -6 0 -8 -4
-3 -4 4 -16 0 -26 -10 -24 -21 -23 -6 1 31 11 17 17 34 14 39 -3 6 -1 7 4 4
11 -7 100 99 91 108 -8 9 -48 -27 -42 -37 5 -7 2 -8 -5 -4 -15 10 -53 -23 -44
-37 3 -5 1 -7 -5 -4 -13 9 -82 -78 -127 -158 -73 -129 -117 -284 -165 -575
-16 -102 -42 -240 -55 -308 -26 -125 -45 -411 -30 -449 3 -10 5 -117 4 -238
-3 -282 -2 -275 -13 -275 -5 0 -34 24 -65 53 -31 29 -63 58 -71 63 -8 5 -28
29 -45 54 -54 82 -127 170 -136 165 -5 -4 -6 0 -3 8 3 8 -3 21 -13 28 -22 17
-113 126 -95 115 6 -4 12 -5 12 -3 0 4 -18 62 -27 87 -15 40 -33 311 -20 303
4 -2 7 7 7 20 0 60 77 251 132 330 11 15 17 27 13 27 -3 0 6 11 20 25 29 30
34 51 8 36 -47 -25 -133 -144 -166 -228 -54 -139 -76 -313 -55 -435 17 -95 2
-90 -35 10 -29 78 -44 168 -53 305 -6 97 -19 126 -28 65 -12 -82 -14 -123 -5
-191 9 -73 56 -220 68 -213 3 2 7 -6 7 -19 2 -26 92 -162 127 -191 12 -10 16
-12 10 -4 -7 8 -13 18 -13 24 0 5 6 1 14 -9 8 -11 12 -24 10 -30 -3 -6 13 -30
34 -53 21 -23 36 -42 33 -42 -3 0 7 -11 22 -25 35 -33 35 -53 1 -30 -96 62
-299 164 -330 165 -9 0 -41 -217 -32 -224 1 -2 50 -22 107 -45 161 -64 305
-155 426 -270 55 -52 57 -56 67 -125 21 -147 5 -223 -142 -651 -32 -93 -67
-213 -78 -265 -11 -52 -23 -103 -27 -112 -5 -14 -2 -18 14 -18 19 0 22 4 21
25 -1 3 6 13 15 21 8 9 15 22 15 30 0 8 4 22 9 32 5 9 15 37 22 62 53 181 276
498 413 589 62 41 121 86 125 93 1 5 9 1 17 -9 12 -17 13 -17 9 2 -4 16 11 30
70 68 42 26 73 52 70 57 -3 6 0 7 8 4 14 -5 44 22 35 31 -8 8 -251 -117 -308
-159 -73 -53 -261 -242 -295 -295 -14 -24 -29 -40 -32 -37 -7 6 81 243 120
320 49 100 171 271 232 328 49 46 176 129 207 135 15 3 26 8 24 12 -13 21 346
20 480 -2 184 -31 295 -18 363 43 19 17 31 33 28 37 -4 3 -29 -4 -56 -16 -100
-43 -196 -45 -470 -10 -79 10 -163 7 -250 -8 -26 -4 -32 -3 -26 7 6 10 4 12
-8 7 -24 -9 -21 0 4 14 15 8 19 8 15 0 -11 -17 10 -13 24 4 7 8 17 15 22 15
17 0 138 87 131 94 -4 4 0 4 9 1 10 -4 23 3 34 17 11 13 24 23 29 23 6 0 53 8
105 17 219 38 338 48 542 48 220 0 285 8 360 46 44 23 123 92 114 101 -8 8
-76 -44 -68 -52 4 -5 2 -5 -4 -2 -6 3 -44 -6 -85 -20 -64 -23 -94 -27 -219
-30 l-145 -3 58 27 c33 16 55 32 51 36 -5 4 -1 5 7 2 21 -8 145 76 141 95 -2
8 0 12 4 7 8 -7 64 40 64 55 0 4 -7 8 -15 8 -8 0 -15 -4 -15 -10 0 -5 -5 -10
-10 -10 -6 0 -49 -25 -97 -56 -48 -31 -102 -63 -120 -72 -18 -8 -29 -20 -26
-25 3 -6 1 -7 -5 -3 -6 3 -32 -2 -59 -13 -79 -30 -180 -51 -180 -36 0 8 7 11
15 7 11 -4 13 -1 7 8 -5 9 -4 11 4 6 14 -9 103 42 156 90 22 20 31 30 20 23
-18 -13 -19 -13 -6 3 7 10 18 15 23 12 6 -4 52 37 103 89 l94 96 68 -29 c92
-38 203 -53 296 -39 77 12 185 50 230 81 33 24 33 20 2 -87 -41 -142 -58 -260
-59 -405 0 -203 35 -312 133 -403 89 -83 194 -114 359 -104 264 15 427 158
486 424 20 88 20 295 2 408 -8 44 -13 81 -12 82 1 1 46 -13 101 -32 173 -59
313 -62 421 -9 105 51 237 193 295 317 49 107 63 178 63 327 0 198 -38 322
-128 418 -88 94 -205 137 -371 135 -128 -1 -332 -41 -449 -89 -22 -8 -22 -8 9
245 12 103 13 150 6 206 -46 330 -279 516 -644 515 -79 0 -117 -6 -168 -23z
m553 -353 l66 -7 26 -46 c53 -99 53 -186 1 -445 -14 -68 -25 -153 -25 -189 0
-59 3 -68 26 -86 15 -12 36 -21 47 -21 12 0 77 29 146 64 160 81 235 106 336
113 229 16 377 -134 378 -382 0 -197 -103 -369 -269 -447 -55 -26 -82 -32
-160 -36 -113 -6 -189 8 -305 54 -48 19 -98 34 -111 34 -29 0 -74 -32 -83 -59
-3 -10 15 -69 40 -135 107 -272 113 -420 24 -586 -17 -30 -43 -70 -58 -88
l-29 -33 -100 11 c-182 20 -318 69 -389 142 -58 59 -76 107 -76 198 1 80 6 96
112 384 29 80 49 147 45 158 -7 25 -40 44 -87 52 -33 6 -51 1 -138 -44 -113
-58 -225 -90 -313 -90 -228 1 -396 163 -396 383 l0 64 68 5 c70 6 156 34 146
49 -3 5 1 7 8 4 17 -6 52 21 44 34 -4 6 -27 3 -62 -9 -61 -21 -173 -44 -181
-37 -8 9 25 61 59 94 105 100 269 114 494 42 105 -34 130 -35 164 -12 68 47
66 69 -23 227 -41 72 -86 162 -101 199 -31 79 -43 184 -27 242 24 89 125 161
266 189 74 15 324 20 437 10z m-1396 -786 c-9 -13 -33 -57 -54 -99 l-37 -76
-55 13 c-90 22 -262 25 -389 8 -62 -8 -116 -12 -119 -10 -2 3 6 7 19 10 13 3
110 24 214 46 105 22 197 42 205 43 37 7 129 40 170 62 58 30 66 30 46 3z
m-249 -193 c67 -8 129 -18 137 -21 12 -5 16 -21 16 -63 0 -139 74 -306 187
-421 40 -41 73 -77 73 -81 0 -3 -18 -19 -40 -34 -22 -15 -40 -32 -40 -36 0
-18 -2 -24 -12 -36 -6 -7 -14 -10 -19 -8 -12 8 -80 -55 -72 -68 3 -5 2 -7 -4
-4 -6 4 -28 -9 -49 -27 -21 -18 -60 -47 -86 -63 -26 -17 -44 -34 -40 -38 4 -5
2 -5 -5 -1 -7 4 -25 0 -40 -8 -15 -7 -71 -23 -123 -35 -52 -11 -106 -23 -120
-27 -22 -5 -19 0 17 33 35 32 41 42 30 53 -10 12 -9 12 4 2 13 -10 19 -9 28 1
6 8 7 17 3 21 -4 4 -1 6 7 4 16 -4 144 139 136 153 -4 5 -11 6 -17 3 -7 -4 -8
-2 -4 5 6 9 11 9 21 1 9 -8 17 -4 29 15 9 14 14 31 10 37 -4 6 -3 8 3 5 14 -9
37 19 27 34 -4 8 -3 9 4 5 6 -4 18 6 27 23 18 36 19 45 3 35 -7 -4 -8 -3 -4 5
4 6 11 9 16 6 12 -8 33 33 24 47 -4 7 -3 8 4 4 8 -5 12 0 12 13 0 12 -4 21 -9
21 -14 0 -52 -56 -43 -64 4 -4 1 -6 -5 -4 -7 2 -31 -19 -52 -47 -33 -40 -38
-52 -28 -65 10 -13 10 -13 -4 -2 -14 11 -24 3 -75 -60 -71 -88 -80 -99 -149
-173 -29 -32 -52 -63 -49 -67 3 -5 2 -7 -3 -6 -12 4 -153 -114 -148 -123 3 -3
-3 -6 -13 -5 -9 0 -16 -5 -14 -12 1 -8 -2 -11 -8 -7 -6 4 -18 1 -26 -6 -14
-11 -72 -23 -61 -12 3 2 8 3 11 1 20 -12 144 224 177 339 38 135 15 183 -29
57 -58 -168 -87 -242 -109 -276 -13 -21 -20 -38 -17 -38 11 0 -190 -197 -214
-209 -12 -7 -20 -17 -16 -23 4 -7 3 -8 -4 -4 -14 8 -75 -22 -67 -33 2 -5 -3
-8 -13 -7 -9 0 -16 -5 -14 -12 1 -8 -2 -11 -8 -7 -5 3 -24 -3 -40 -15 -27 -19
-29 -24 -18 -38 12 -15 11 -15 -4 -4 -15 12 -23 8 -61 -27 -24 -23 -48 -41
-53 -40 -5 0 -26 20 -46 43 l-38 43 10 84 c5 46 10 111 10 145 0 117 75 351
142 446 11 16 16 33 13 38 -4 6 -2 9 3 8 5 -2 30 24 55 58 31 42 58 67 91 82
25 12 50 22 56 22 5 0 10 4 10 8 0 4 8 8 18 8 97 3 370 70 407 99 19 16 19 16
-10 12 -85 -12 -232 -38 -245 -43 -8 -4 -28 -7 -45 -9 -46 -4 -116 -25 -111
-34 6 -9 -30 -8 -39 1 -10 9 130 89 267 152 71 33 126 61 123 64 -2 2 -12 1
-22 -3 -10 -4 -27 -9 -38 -10 -41 -6 -164 -59 -158 -68 3 -6 1 -7 -5 -3 -22
13 -188 -86 -176 -105 3 -5 -1 -6 -9 -3 -15 5 -117 -102 -107 -112 3 -3 -3
-10 -13 -15 -9 -6 -14 -15 -11 -21 4 -6 2 -8 -4 -4 -6 4 -26 -19 -48 -54 -20
-33 -39 -59 -41 -56 -2 2 5 40 17 85 11 45 18 87 14 93 -4 6 -3 8 3 5 6 -4 14
5 18 20 3 15 22 61 41 101 18 41 31 79 27 85 -4 6 -1 7 7 2 10 -6 12 -4 6 11
-4 10 -4 15 0 11 9 -8 75 99 71 115 -1 7 3 12 8 13 6 0 24 10 42 23 70 50 159
83 249 92 209 22 331 24 481 5z"/>
<path d="M9927 18169 c-21 -11 -37 -26 -34 -33 23 -59 117 -419 117 -446 0
-17 -63 -11 -110 11 -25 11 -73 48 -108 82 l-64 62 4 -57 3 -57 -47 -12 c-178
-42 -301 -279 -301 -579 0 -354 193 -627 518 -730 98 -31 287 -38 408 -16 175
33 354 112 510 224 152 109 240 236 273 392 20 94 14 315 -10 405 -57 208
-192 355 -375 409 -68 20 -198 20 -271 1 -30 -8 -56 -15 -58 -15 -1 0 0 11 4
25 7 29 -4 115 -15 115 -4 0 -15 -24 -24 -53 -33 -105 -127 -208 -203 -223
-31 -6 -31 -6 -42 53 -6 32 -21 128 -32 213 -34 253 -50 278 -143 229z m-200
-659 c7 0 17 -9 23 -20 16 -29 -4 -83 -47 -131 -27 -30 -43 -39 -68 -39 -40 0
-55 17 -61 67 -9 67 62 142 121 128 11 -3 25 -5 32 -5z"/>
<path d="M21130 17779 c-149 -39 -287 -122 -362 -217 -45 -55 -78 -152 -78
-226 0 -209 163 -472 423 -683 37 -30 67 -57 67 -60 0 -2 -4 -2 -8 1 -4 2 -37
7 -73 11 -299 26 -554 -360 -440 -666 37 -98 161 -216 296 -282 102 -49 157
-62 270 -62 118 0 198 23 292 85 65 42 164 145 188 197 22 45 32 48 40 11 19
-87 80 -268 116 -346 184 -389 436 -490 733 -291 91 61 156 131 195 212 35 72
55 180 46 252 -15 115 -67 262 -118 330 -15 20 -16 20 -39 -2 -14 -13 -30 -23
-36 -23 -18 0 -14 32 8 60 11 14 20 30 20 37 0 12 -67 101 -108 143 -13 13
-20 26 -15 27 4 1 55 12 113 23 129 25 246 78 309 141 86 87 144 255 144 419
0 149 -46 293 -137 426 -120 179 -228 252 -382 262 -175 10 -346 -78 -550
-285 l-112 -113 -58 138 c-89 210 -144 293 -251 384 -126 107 -315 144 -493
97z m426 -227 c92 -67 129 -130 204 -345 62 -178 97 -248 133 -265 53 -25 74
-7 174 144 105 158 183 238 282 287 55 27 76 32 140 32 66 0 85 -4 143 -33
111 -55 207 -185 238 -323 18 -81 8 -220 -20 -292 -63 -159 -258 -280 -488
-303 -87 -9 -124 -39 -120 -97 3 -39 8 -45 88 -106 136 -104 236 -210 276
-294 41 -87 60 -203 48 -292 l-9 -60 -65 -32 c-245 -121 -453 -129 -558 -20
-59 62 -82 127 -119 336 -19 108 -40 214 -46 236 -15 51 -46 63 -109 45 -41
-12 -50 -21 -94 -94 -53 -88 -141 -187 -202 -230 -40 -28 -107 -52 -97 -35 6
8 -11 13 -42 12 -7 -1 -11 3 -8 7 4 7 -55 25 -95 29 -94 11 -148 11 -192 2
-51 -11 -52 -11 -86 21 -38 37 -66 84 -57 98 3 5 -4 19 -15 30 -18 18 -20 31
-18 88 l3 67 42 -2 c22 -1 81 -15 129 -32 100 -35 107 -36 79 -15 -38 29 -116
65 -127 58 -6 -4 -8 -3 -5 3 7 12 -24 23 -65 23 -15 0 -29 4 -32 9 -9 14 59
97 75 93 8 -2 30 -6 49 -8 l35 -5 -32 18 c-18 9 -33 20 -33 24 0 13 128 81
190 100 31 10 93 25 136 34 88 17 119 42 130 103 9 46 -9 62 -177 163 -221
131 -309 231 -309 350 0 106 77 210 235 319 87 60 310 179 336 180 9 0 34 -13
55 -28z"/>
<path d="M24980 16890 c-8 -5 -17 -7 -21 -4 -10 6 -110 -41 -139 -65 -14 -12
-38 -32 -54 -44 -31 -26 -29 -55 3 -38 13 7 18 6 18 -3 0 -15 -30 -14 -50 2
-11 10 -18 7 -33 -10 -19 -22 -19 -23 1 -8 18 14 19 13 8 -1 -7 -9 -9 -19 -5
-24 4 -4 -2 -3 -14 3 -18 9 -28 4 -77 -42 -32 -29 -59 -50 -62 -48 -3 3 -5 0
-5 -6 0 -7 -3 -11 -7 -10 -14 5 -74 -46 -69 -57 2 -7 0 -18 -5 -26 -8 -11 -9
-11 -7 3 2 9 -1 17 -7 17 -17 0 -94 -53 -89 -61 3 -4 -2 -5 -10 -2 -19 7 -22
-12 -3 -20 6 -3 1 -3 -13 -1 -27 5 -59 -9 -47 -21 3 -4 13 -2 20 4 10 9 14 9
14 -1 0 -15 -34 -20 -42 -6 -3 5 -34 -5 -68 -23 -34 -17 -69 -32 -77 -33 -22
-2 -122 -34 -143 -46 -10 -5 -21 -8 -25 -6 -4 3 -27 2 -51 -2 l-45 -6 45 -23
c37 -19 62 -23 159 -25 109 -2 118 -1 175 27 33 17 69 38 80 47 11 9 65 48
120 85 55 37 102 70 105 73 3 3 22 19 42 34 26 19 36 33 32 45 -5 14 -4 15 5
2 9 -12 14 -11 38 11 66 60 135 101 232 138 80 30 63 2 -26 -44 -43 -22 -79
-43 -81 -47 -2 -5 -9 -8 -15 -8 -7 0 -50 -31 -97 -70 -47 -38 -117 -92 -156
-119 -40 -28 -100 -72 -135 -98 -35 -26 -84 -57 -109 -68 l-45 -20 100 -6 c55
-3 177 -5 270 -5 l170 1 84 43 c46 24 92 52 104 62 76 72 255 117 435 112 84
-3 60 -19 -40 -26 -51 -4 -120 -12 -153 -17 -57 -10 -189 -65 -217 -92 -8 -6
-44 -28 -81 -47 l-67 -35 122 -7 c117 -6 292 -41 304 -59 3 -5 12 -9 21 -9 8
0 30 -7 49 -15 19 -8 49 -22 68 -30 19 -8 39 -15 45 -15 6 0 11 -4 11 -10 0
-5 4 -10 9 -10 16 0 131 -72 131 -82 0 -5 -3 -7 -7 -5 -102 52 -251 119 -293
133 -30 9 -64 21 -75 26 -48 21 -171 38 -300 44 -136 5 -139 5 -110 -12 62
-35 146 -107 207 -176 35 -39 75 -84 89 -99 21 -23 23 -29 11 -31 -10 -2 -60
40 -122 102 -183 183 -241 211 -455 216 -120 3 -144 1 -121 -8 50 -19 142 -72
181 -103 118 -95 155 -130 152 -139 -6 -18 -22 -16 -47 6 -14 13 -52 43 -85
68 -33 25 -66 50 -73 57 -22 21 -139 73 -225 100 -74 23 -277 47 -277 33 0 -3
12 -12 28 -22 15 -9 42 -26 60 -37 19 -12 31 -17 28 -12 -6 10 23 25 32 16 3
-3 1 -5 -5 -5 -15 0 -12 -28 5 -35 7 -3 19 -2 24 2 6 3 8 2 5 -4 -6 -9 41 -43
55 -40 4 1 14 -7 23 -18 9 -11 14 -13 10 -5 -5 10 -2 10 7 -2 20 -24 118 -89
115 -76 -1 6 5 13 13 15 11 3 12 2 3 -4 -16 -11 -4 -29 48 -67 38 -28 55 -33
43 -14 -5 7 -3 8 5 4 7 -5 10 -10 7 -13 -9 -9 43 -45 54 -38 6 4 9 1 8 -6 -6
-29 217 -33 485 -9 119 11 137 15 132 29 -3 11 0 10 10 -3 8 -11 15 -15 15 -9
0 6 -9 22 -20 36 -11 14 -20 29 -20 34 0 5 -20 29 -45 53 -25 24 -45 47 -45
51 0 4 9 9 20 12 11 3 18 2 15 -3 -3 -4 2 -11 11 -14 10 -4 13 -2 8 6 -4 7 6
2 23 -10 17 -12 36 -22 41 -22 5 0 40 -14 77 -31 36 -17 78 -31 93 -31 15 0
29 -4 32 -8 13 -21 167 -19 154 1 -3 5 1 6 9 4 7 -3 25 4 40 15 24 19 29 39
17 70 -2 3 -2 8 -1 12 6 38 -114 168 -140 152 -7 -4 -9 -3 -6 3 3 5 -14 19
-38 31 -31 15 -45 18 -49 9 -2 -7 -5 -5 -5 4 -1 9 -11 19 -23 22 -31 8 -65 33
-47 35 8 0 40 3 71 6 32 3 60 1 63 -4 7 -12 197 -5 223 9 12 6 22 17 22 23 0
6 -10 3 -22 -8 -22 -18 -22 -18 0 8 20 22 22 29 12 48 -10 18 -14 20 -22 9 -8
-11 -8 -9 -4 5 7 21 -11 49 -27 39 -5 -3 -7 -1 -3 5 5 9 -45 55 -84 77 -12 6
-13 5 -2 -6 19 -21 14 -31 -6 -11 -11 9 -17 20 -16 23 6 10 -45 29 -61 23 -8
-4 -15 -2 -15 4 0 12 -43 23 -110 29 -132 13 -172 14 -188 8 -9 -4 -48 -9 -86
-11 -38 -2 -75 -9 -82 -15 -7 -6 -18 -8 -23 -4 -16 9 -53 -14 -45 -28 5 -9 4
-9 -6 0 -15 14 -43 5 -33 -11 4 -6 0 -5 -9 2 -22 17 -15 33 28 67 18 15 34 33
34 41 0 8 5 14 11 14 5 0 7 -4 4 -10 -3 -5 14 2 38 18 25 15 42 31 39 36 -3 5
0 6 6 2 6 -3 24 6 40 21 50 47 69 103 35 103 -16 0 -16 2 -3 10 12 9 8 16 -24
44 -23 20 -46 32 -54 28 -9 -3 -13 -1 -9 5 8 13 -63 16 -83 3z"/>
<path d="M20364 16420 c31 -259 28 -373 -15 -469 -26 -59 -51 -85 -119 -123
-30 -18 -56 -35 -58 -40 -2 -4 -9 -8 -15 -8 -7 0 -25 -7 -40 -15 -62 -32 -206
-75 -253 -75 -27 0 -58 -3 -70 -6 -19 -5 -20 -7 -5 -54 14 -41 25 -54 81 -91
35 -24 73 -54 84 -66 10 -12 23 -20 28 -17 5 3 7 2 6 -3 -2 -5 13 -28 33 -51
43 -51 71 -57 40 -9 -11 17 -24 32 -30 32 -5 0 -13 4 -18 9 -5 5 -3 6 5 2 19
-11 14 9 -7 28 -12 11 -25 15 -33 10 -11 -6 -11 -5 0 8 11 14 10 18 -6 27 -11
6 -23 7 -27 3 -5 -4 -5 -2 -1 5 4 8 -9 22 -33 39 -51 33 -44 49 9 23 23 -11
46 -17 53 -13 7 4 9 3 4 -1 -4 -5 23 -24 60 -43 74 -37 170 -105 191 -134 7
-10 18 -15 24 -12 7 4 8 2 4 -4 -4 -6 0 -22 8 -34 8 -13 20 -50 26 -83 7 -33
15 -64 18 -69 8 -14 9 -57 1 -62 -4 -2 -28 8 -54 22 -26 13 -49 23 -51 21 -3
-2 14 -24 36 -48 54 -58 77 -104 89 -177 10 -66 32 -117 54 -125 7 -3 35 -43
61 -90 117 -208 349 -390 571 -446 227 -58 516 -100 705 -101 96 -1 157 -15
189 -44 42 -38 41 -15 -3 62 -19 33 -63 126 -99 206 -111 249 -180 352 -250
375 -18 6 -81 10 -142 8 -97 -2 -115 1 -151 20 -73 39 -135 112 -194 229 -73
144 -92 158 -210 151 -48 -2 -113 -14 -149 -26 -35 -12 -66 -19 -69 -16 -3 3
-11 0 -18 -6 -7 -6 -55 -13 -108 -16 l-94 -6 -31 49 c-17 27 -40 73 -52 101
-12 31 -26 50 -32 46 -6 -3 -7 -1 -3 5 4 6 -3 30 -14 52 -19 37 -19 40 -3 31
10 -5 46 -33 81 -61 35 -28 67 -48 73 -45 5 4 8 1 7 -6 -3 -11 133 -131 141
-123 2 2 10 -4 18 -14 13 -16 13 -15 4 3 -5 11 -20 29 -33 40 -13 11 -50 43
-83 71 -113 95 -225 175 -237 168 -7 -4 -8 -3 -4 4 4 6 -5 18 -21 27 l-28 16
40 -5 c22 -3 105 -8 185 -12 175 -8 199 -18 288 -127 57 -68 135 -148 102
-102 -8 11 -17 22 -21 25 -3 3 -15 22 -28 43 -12 20 -27 37 -32 37 -5 0 -9 5
-9 10 0 13 -37 50 -44 44 -4 -2 -2 1 3 7 9 11 43 -4 119 -55 51 -35 66 -29 20
8 -18 14 -41 33 -50 42 -9 9 -22 13 -29 8 -7 -4 -10 -3 -6 3 4 6 -15 22 -41
36 -83 45 -145 57 -286 57 -155 0 -255 21 -385 79 -47 21 -104 44 -126 52
l-40 13 75 9 c41 4 167 6 280 4 168 -4 219 -8 284 -26 43 -11 83 -18 89 -14 5
3 7 2 4 -4 -4 -6 12 -18 34 -28 52 -24 130 -82 200 -150 31 -30 59 -55 63 -55
3 0 22 -18 42 -40 57 -63 73 -50 29 21 -14 22 -30 37 -35 34 -5 -3 -12 0 -16
6 -4 8 -3 9 4 5 23 -14 12 10 -16 37 -16 15 -32 24 -37 20 -4 -5 -5 -3 -1 4 4
8 -9 24 -34 42 -27 19 -36 31 -26 34 7 3 17 2 22 -3 13 -12 177 -75 191 -74 7
1 11 -2 8 -5 -2 -4 10 -15 28 -24 18 -9 42 -24 55 -33 46 -34 20 5 -32 46 -49
39 -99 61 -178 77 -16 3 -28 9 -28 14 0 5 -7 6 -15 3 -8 -4 -15 -2 -15 3 0 13
-60 43 -95 47 -17 2 -48 11 -70 20 -21 9 -45 14 -52 11 -8 -2 -12 -1 -9 4 14
21 -140 60 -267 68 -53 3 -96 8 -94 10 8 7 223 33 280 33 42 0 58 3 55 13 -10
27 -221 18 -395 -18 -34 -7 -64 -10 -67 -8 -3 3 41 29 97 57 61 30 101 57 99
64 -1 8 2 11 7 7 6 -3 46 11 89 30 l79 36 -10 50 -10 50 -43 -42 c-49 -48 -51
-46 -28 26 23 75 21 230 -5 338 -25 105 -45 146 -37 77z"/>
<path d="M23644 16185 c1 -49 5 -85 11 -85 6 0 6 -3 -1 -8 -14 -9 -46 -100
-46 -129 0 -13 -3 -21 -7 -18 -9 5 -54 -85 -46 -93 3 -3 5 1 5 8 0 7 2 11 5 8
3 -3 -2 -18 -11 -35 -15 -26 -15 -32 -3 -58 15 -32 68 -52 56 -21 -3 8 -1 18
5 22 6 4 8 3 4 -4 -3 -6 -2 -13 3 -16 5 -3 19 15 32 41 35 73 54 79 61 18 2
-19 2 -32 -1 -29 -8 8 -31 -57 -24 -69 3 -5 2 -7 -4 -4 -10 6 -60 -89 -55
-105 1 -4 -2 -8 -7 -8 -16 0 -25 -80 -11 -93 10 -9 11 -9 5 2 -6 10 -4 12 4 7
8 -6 9 -11 2 -20 -16 -19 20 -51 38 -33 10 9 11 8 5 -7 -6 -16 -5 -17 15 -7
12 7 18 17 15 23 -4 7 -2 8 5 4 6 -4 19 -2 28 6 23 19 54 93 47 112 -3 9 -1
16 6 16 6 0 10 8 9 18 -1 9 1 24 4 32 4 8 8 30 10 48 4 39 20 57 41 49 13 -5
14 -21 9 -104 -12 -181 -7 -235 27 -281 66 -88 151 -27 157 111 2 57 0 68 -12
63 -8 -3 -15 -1 -15 4 0 6 5 10 10 10 14 0 13 26 -2 53 -6 12 -13 32 -14 45
-2 13 -7 29 -13 36 -8 9 -6 18 5 32 8 10 13 14 10 7 -4 -6 5 -28 18 -48 14
-20 28 -45 31 -56 4 -10 11 -19 16 -19 6 0 7 -5 3 -12 -5 -7 -2 -9 8 -5 10 3
24 -4 37 -19 11 -13 16 -24 11 -24 -6 0 -13 7 -16 15 -4 8 -11 12 -17 8 -6 -4
-7 -1 -2 7 6 9 4 11 -4 5 -17 -10 24 -54 47 -51 9 2 15 6 12 9 -3 3 4 13 15
21 25 18 26 92 2 149 -9 20 -16 40 -16 42 0 3 -8 19 -16 36 -13 25 -19 28 -31
18 -16 -13 -19 2 -4 17 7 7 3 17 -12 30 -22 19 -23 19 -8 -1 14 -19 14 -19 -3
-6 -10 8 -16 20 -13 27 3 7 -3 18 -11 26 -14 11 -16 11 -11 -4 9 -21 -21 -18
-33 4 -7 12 -5 16 8 13 10 -1 26 2 36 7 11 5 17 5 17 -2 0 -5 7 -10 15 -10 9
0 18 -7 21 -15 4 -8 11 -12 16 -9 7 4 7 9 0 13 -5 3 0 14 13 24 17 12 26 14
31 5 5 -7 3 -8 -6 -3 -10 6 -12 4 -7 -8 4 -12 2 -14 -11 -10 -15 5 -14 3 2
-16 20 -22 20 -22 0 -15 -17 7 -17 6 -5 -9 20 -25 60 -22 70 6 5 12 5 23 0 25
-5 2 -6 9 -2 15 4 7 0 8 -11 4 -9 -4 -14 -3 -11 2 3 5 1 13 -5 16 -8 5 -7 11
1 21 10 13 6 18 -13 15 -5 0 -8 6 -8 16 0 9 -2 14 -5 11 -3 -3 -18 6 -34 21
-38 35 -96 69 -87 50 4 -8 -2 -3 -13 11 -11 14 -21 21 -21 17 0 -5 -12 1 -26
12 -15 11 -30 18 -35 15 -5 -3 -9 -1 -9 4 0 11 -71 46 -87 43 -7 -1 -13 2 -13
8 0 13 -99 73 -116 69 -11 -2 -8 -13 13 -45 21 -33 30 -40 40 -31 10 8 12 7 8
-4 -6 -16 7 -24 105 -62 126 -48 122 -47 114 -34 -4 6 9 -1 29 -16 21 -16 41
-25 48 -20 8 5 9 3 4 -6 -6 -10 -4 -12 8 -7 11 4 17 1 17 -8 0 -8 9 -19 20
-25 11 -6 20 -17 20 -25 0 -20 -4 -19 -50 10 -22 14 -44 25 -50 25 -5 0 -10 5
-10 11 0 6 -7 8 -16 5 -8 -3 -12 -2 -9 4 3 6 -1 10 -9 10 -14 0 -45 12 -113
43 -11 5 -26 6 -32 3 -6 -4 -11 -3 -11 2 0 5 -9 12 -20 15 -19 5 -20 4 -3 -24
11 -19 21 -25 27 -19 6 6 14 10 20 10 5 0 2 -6 -8 -13 -15 -11 -16 -17 -7 -33
6 -10 16 -32 22 -49 8 -23 12 -26 20 -15 7 11 8 9 7 -10 -2 -18 2 -25 14 -24
10 1 16 -2 13 -6 -6 -9 80 -81 89 -75 3 3 4 2 1 -1 -2 -4 14 -27 36 -53 47
-53 83 -117 73 -132 -7 -12 -34 7 -34 25 0 6 -12 25 -26 41 -14 17 -22 23 -18
15 7 -13 6 -13 -10 0 -10 8 -14 16 -9 17 10 4 -30 50 -88 101 l-35 31 19 -82
c21 -92 30 -113 47 -109 6 1 9 -2 5 -8 -3 -6 -11 -7 -17 -4 -8 5 -9 -3 -4 -27
18 -84 22 -161 10 -181 -11 -18 -21 12 -34 97 -6 44 -14 87 -17 95 -3 8 -6 30
-8 48 -1 19 -8 38 -16 43 -8 5 -9 9 -3 9 8 0 6 20 -6 63 -9 34 -21 62 -25 62
-4 0 -16 -23 -25 -50 -15 -44 -48 -120 -82 -192 -6 -11 -7 -27 -3 -34 5 -8 4
-10 -4 -5 -7 5 -13 -3 -17 -24 -6 -30 -24 -52 -24 -30 0 6 -4 9 -9 5 -6 -3 6
34 26 82 19 49 36 96 36 105 1 9 4 15 7 13 3 -2 19 29 35 68 37 96 36 144 -5
226 l-33 64 -28 -63 c-16 -34 -29 -67 -29 -71 0 -5 -4 -9 -9 -9 -5 0 -16 -18
-25 -41 -9 -22 -20 -38 -25 -34 -5 3 -12 -1 -14 -7 -4 -8 -6 -7 -6 4 -1 9 4
20 10 23 6 4 8 14 5 22 -3 8 -2 12 3 9 11 -7 24 41 16 54 -3 6 1 7 9 4 16 -6
32 29 20 47 -4 7 -3 9 3 6 13 -8 33 43 33 81 0 13 -13 41 -28 61 -16 20 -33
44 -39 54 -6 13 -9 -7 -9 -68z"/>
<path d="M10412 16144 c-98 -21 -233 -69 -324 -115 -141 -71 -232 -135 -403
-283 l-39 -35 28 -38 c15 -21 37 -51 48 -68 12 -16 33 -40 49 -53 l27 -22 79
56 c114 82 244 156 363 207 97 41 250 87 291 87 35 0 46 25 43 99 -1 39 -8 95
-14 126 -11 55 -11 55 -48 54 -20 -1 -65 -7 -100 -15z"/>
<path d="M24476 15748 c16 -11 37 -37 46 -57 13 -30 16 -32 17 -13 1 14 7 22
19 22 12 0 13 -3 5 -8 -8 -5 3 -22 36 -55 26 -26 51 -45 54 -42 4 3 5 2 2 -1
-2 -4 7 -21 20 -38 13 -17 33 -55 45 -85 20 -51 50 -104 50 -88 0 4 -9 26 -20
47 -35 69 0 45 69 -46 35 -46 73 -94 83 -107 64 -75 104 -121 113 -131 6 -6
21 -24 33 -40 12 -16 49 -59 81 -95 33 -36 82 -93 111 -126 174 -202 261 -299
274 -304 13 -5 -108 150 -160 205 -5 6 -30 36 -55 65 -24 29 -65 76 -90 104
-70 77 -112 124 -197 224 -26 30 -54 61 -63 70 -9 9 -46 56 -82 104 -66 86
-85 125 -49 96 48 -39 168 -81 267 -94 270 -35 464 -114 607 -245 29 -27 58
-49 63 -49 16 0 -94 99 -150 134 -119 77 -241 122 -417 156 -59 11 -117 22
-130 23 -75 9 -191 54 -253 96 -42 29 -135 116 -135 127 0 3 -18 23 -40 45
-24 25 -44 37 -52 32 -9 -5 -10 -4 -3 4 7 7 67 13 160 16 109 3 172 10 230 25
48 13 130 24 205 27 136 7 199 23 90 23 -98 1 -261 -17 -276 -30 -7 -6 -17 -8
-21 -6 -5 3 -35 -1 -68 -9 -70 -16 -257 -25 -315 -14 -22 4 -57 19 -78 34 -21
14 -42 26 -47 26 -6 0 4 -10 21 -22z"/>
<path d="M13616 15233 c-7 -8 -11 -9 -37 -12 -5 0 -7 -5 -4 -11 3 -6 -1 -7 -9
-4 -10 4 -18 -1 -22 -11 -4 -9 -13 -14 -21 -11 -8 4 -39 -20 -79 -62 -35 -37
-59 -69 -53 -71 6 -2 1 -10 -10 -18 -12 -8 -28 -29 -37 -46 -14 -30 -14 -31 2
-12 15 18 16 18 10 2 -3 -10 -6 -21 -6 -23 0 -2 -7 -4 -15 -4 -14 0 -19 -14
-18 -47 1 -7 -3 -11 -7 -8 -4 3 -18 -28 -30 -68 -12 -39 -26 -83 -31 -97 -5
-14 -11 -43 -13 -65 -2 -22 -7 -52 -11 -67 -5 -18 -3 -28 4 -28 6 0 11 -5 11
-11 0 -5 -5 -7 -12 -3 -8 5 -9 0 -6 -14 4 -12 2 -24 -2 -27 -12 -7 -37 32 -46
70 -4 17 -10 35 -13 40 -4 6 -8 24 -10 40 -1 17 -4 39 -6 50 -2 11 -4 27 -4
35 -1 12 -3 12 -9 2 -6 -8 -9 -2 -9 18 0 40 -45 80 -90 78 -19 -1 -30 -5 -26
-11 4 -6 0 -8 -9 -4 -24 9 -60 -21 -53 -43 4 -13 -1 -22 -14 -30 -17 -9 -20
-8 -15 5 3 8 10 12 15 9 5 -3 9 0 9 5 0 18 -19 12 -30 -8 -14 -26 -13 -31 6
-31 8 0 12 -5 9 -10 -4 -6 -10 -8 -15 -5 -15 9 -22 -36 -15 -95 3 -30 5 -65 5
-78 0 -13 4 -21 8 -18 4 2 8 -3 9 -12 1 -23 9 -52 24 -87 6 -16 13 -37 14 -45
5 -42 50 -158 58 -153 6 3 7 1 4 -4 -8 -13 3 -74 12 -69 3 2 7 -9 7 -26 1 -17
6 -33 11 -37 5 -3 10 -16 11 -28 0 -13 2 -34 3 -48 1 -14 5 -25 9 -25 4 0 5
-11 3 -23 -3 -14 2 -31 12 -40 9 -10 11 -17 5 -17 -7 0 -9 -8 -4 -22 4 -13 6
-88 4 -168 -3 -190 -4 -210 -11 -210 -4 0 -9 -11 -11 -24 l-5 -24 33 26 c24
19 45 54 76 127 36 85 42 110 42 170 1 40 -7 92 -16 120 -9 28 -29 97 -43 155
-15 58 -33 119 -40 135 -13 27 -42 127 -66 225 -11 45 -11 220 0 200 4 -8 13
-60 20 -115 11 -94 35 -191 66 -260 7 -16 25 -75 39 -130 15 -55 33 -122 41
-150 9 -27 19 -77 23 -110 l9 -60 32 70 c18 39 40 93 48 120 8 28 18 52 22 55
15 11 83 215 88 264 4 37 -2 83 -18 152 -18 76 -24 126 -23 214 1 126 13 184
59 270 41 78 44 42 6 -73 -40 -124 -48 -217 -26 -332 10 -49 20 -112 24 -140
6 -54 11 -52 31 10 19 59 82 181 133 257 47 71 246 273 278 283 11 4 19 11 19
16 0 5 7 9 15 9 8 0 15 -4 15 -10 0 -5 -5 -10 -11 -10 -15 0 -239 -228 -239
-243 0 -7 -8 -20 -17 -28 -24 -21 -53 -58 -53 -66 0 -3 -13 -27 -28 -52 -28
-46 -112 -244 -112 -264 0 -6 15 3 33 20 47 44 141 96 232 128 44 16 84 32 90
37 12 10 55 11 55 0 0 -9 -188 -92 -207 -92 -6 0 -13 -4 -15 -8 -1 -4 -25 -22
-53 -38 -27 -17 -67 -47 -87 -66 -39 -36 -108 -126 -108 -142 0 -5 -16 -49
-36 -98 -20 -49 -34 -91 -32 -94 2 -2 24 16 49 39 50 49 140 111 214 147 27
14 56 31 63 38 18 16 32 15 32 -3 0 -9 -14 -24 -31 -33 -32 -17 -145 -90 -188
-120 -39 -27 -121 -110 -121 -121 0 -6 -4 -11 -8 -11 -4 0 -21 -21 -38 -47
-16 -25 -35 -52 -42 -59 -6 -7 -26 -48 -43 -91 -17 -43 -36 -81 -42 -85 -6 -4
-9 -9 -6 -12 2 -3 19 8 36 24 18 17 37 30 44 30 6 0 9 7 6 14 -4 10 -1 13 8
10 8 -3 20 4 27 15 7 12 18 21 25 21 6 0 19 10 27 22 9 12 16 18 16 13 0 -4
11 2 25 15 13 12 22 28 18 33 -4 6 0 8 10 4 15 -6 31 7 32 25 0 3 4 10 9 15 5
5 6 3 2 -4 -12 -21 3 -15 50 19 29 20 43 37 39 46 -4 11 -2 12 8 4 10 -9 21
-5 48 18 19 16 30 29 25 30 -5 0 -19 -8 -30 -17 l-21 -18 19 23 c13 15 26 20
39 16 13 -4 17 -2 13 5 -4 6 -1 9 7 5 8 -3 20 3 28 12 8 10 9 15 2 11 -6 -4
-14 -3 -18 2 -3 6 5 8 17 6 34 -6 42 2 87 94 43 88 67 157 105 306 2 6 6 17 9
25 3 8 14 49 25 90 11 41 23 83 27 93 6 14 2 17 -24 17 -17 0 -31 -5 -31 -11
0 -6 -7 -9 -15 -5 -19 7 -77 -13 -70 -24 3 -5 -4 -7 -15 -5 -11 2 -20 0 -20
-6 0 -5 -12 -9 -26 -9 l-25 0 20 26 c11 15 18 31 14 37 -3 5 -1 7 5 3 13 -8
74 52 66 65 -3 5 0 8 8 7 7 -2 12 3 10 10 -1 8 1 11 6 8 12 -7 66 50 58 62 -3
5 2 16 12 23 15 13 16 12 3 -3 -7 -10 -11 -18 -7 -18 13 0 57 80 50 91 -4 7
-3 10 3 6 14 -9 25 33 29 106 2 54 1 58 -26 72 -16 8 -41 15 -55 15 -39 0
-105 -23 -105 -37 0 -7 -5 -13 -11 -13 -5 0 -7 5 -3 11 12 20 -81 -44 -123
-85 -40 -38 -57 -66 -31 -50 7 5 8 3 4 -5 -5 -7 -11 -10 -14 -7 -3 3 -14 -1
-24 -11 -10 -9 -19 -13 -19 -10 -5 26 -4 35 9 61 7 15 9 25 3 22 -7 -4 -8 -1
-5 8 3 9 10 14 14 11 11 -7 22 24 13 37 -3 7 -1 8 5 4 16 -10 15 7 0 23 -11
10 -9 11 5 5 10 -3 17 -3 15 2 -1 5 3 19 10 32 7 12 12 28 11 35 -1 6 3 24 11
39 14 30 7 63 -11 52 -8 -4 -9 -3 -5 5 4 6 12 9 17 6 13 -9 11 9 -3 23 -13 13
-70 16 -82 5z"/>
<path d="M9157 14923 c-40 -134 -47 -166 -62 -281 -15 -113 -20 -330 -7 -348
9 -13 181 -69 241 -79 43 -7 44 -7 37 16 -18 63 -45 223 -51 304 -7 103 13
268 45 361 11 31 20 59 20 60 0 5 -165 54 -181 54 -11 0 -24 -27 -42 -87z"/>
<path d="M14815 14776 c-175 -93 -281 -207 -445 -478 -83 -139 -122 -187 -195
-243 -24 -18 -41 -36 -37 -41 4 -4 1 -4 -6 0 -7 4 -18 4 -25 -2 -7 -5 -50 -24
-97 -42 -47 -19 -95 -40 -107 -48 -28 -17 -30 -5 -8 39 37 71 76 206 96 330
11 74 36 181 55 238 19 57 33 108 32 113 -3 9 -79 -203 -84 -236 -48 -311
-104 -482 -175 -531 -41 -29 -56 -56 -16 -31 21 14 65 20 118 17 14 0 52 -17
85 -36 46 -27 52 -29 29 -10 -35 31 -81 52 -133 61 -34 7 -35 8 -14 17 12 6
22 14 22 19 0 5 4 7 9 4 5 -3 31 4 57 16 27 12 65 25 84 30 46 11 218 10 300
-3 36 -5 108 -16 160 -24 100 -15 480 -21 480 -7 0 4 -100 7 -223 8 -197 0
-240 3 -382 28 -93 16 -180 26 -207 23 -27 -2 -48 -1 -48 2 0 3 87 34 193 69
236 77 390 136 381 145 -4 4 1 7 11 7 34 0 124 33 118 43 -4 6 0 8 10 4 19 -7
125 37 110 46 -15 9 -83 -14 -76 -26 4 -6 0 -8 -10 -4 -9 3 -91 -24 -184 -60
-92 -36 -216 -83 -275 -103 -59 -20 -104 -41 -100 -45 4 -5 2 -5 -4 -2 -13 7
-127 -27 -118 -35 3 -4 -4 -4 -15 -1 -20 5 -19 7 14 30 59 40 100 91 182 228
66 111 151 235 212 307 30 36 135 115 211 157 41 24 77 45 79 47 12 11 -29 -1
-64 -20z"/>
<path d="M18088 14369 c-21 -11 -38 -22 -38 -26 0 -3 13 -49 30 -102 42 -138
91 -342 84 -353 -8 -13 -78 -2 -118 19 -17 9 -60 43 -94 77 l-64 61 3 -57 4
-56 -55 -16 c-173 -47 -291 -277 -292 -566 -1 -197 46 -348 152 -489 94 -124
204 -200 365 -251 89 -28 272 -38 382 -20 314 50 654 261 757 470 53 109 69
197 63 360 -5 156 -20 221 -78 337 -93 186 -246 282 -450 283 -54 0 -116 -6
-142 -14 -26 -8 -47 -11 -48 -8 -1 4 0 22 1 40 2 38 -9 92 -18 92 -4 0 -15
-22 -24 -48 -40 -113 -131 -213 -207 -228 -32 -7 -26 -31 -67 246 -34 232 -33
229 -55 251 -24 24 -44 24 -91 -2z m-201 -659 c20 0 33 -36 27 -69 -4 -17 -24
-51 -46 -76 -32 -36 -46 -45 -73 -45 -40 0 -55 17 -61 67 -9 67 62 142 121
128 11 -3 25 -5 32 -5z"/>
<path d="M16465 14230 c-49 -16 -165 -46 -256 -68 -226 -53 -308 -92 -345
-165 -8 -15 -19 -63 -24 -107 -19 -168 -108 -253 -317 -305 -109 -27 -138 -44
-170 -101 -22 -37 -23 -48 -20 -239 2 -181 0 -210 -22 -303 -19 -82 -31 -110
-58 -141 -18 -22 -33 -42 -33 -45 0 -6 63 26 70 36 15 19 108 49 228 72 243
48 389 119 542 263 139 131 178 196 307 522 41 103 82 230 109 340 42 166 65
223 101 244 19 11 16 27 -4 26 -10 -1 -58 -14 -108 -29z"/>
<path d="M5937 14039 c-107 -15 -198 -83 -251 -187 -45 -89 -58 -156 -62 -332
-4 -148 -6 -165 -21 -162 -10 2 -60 21 -113 43 -129 52 -201 69 -285 69 -195
0 -341 -97 -425 -282 -145 -320 -22 -531 349 -598 32 -6 96 -11 143 -12 l85
-1 26 -51 c23 -47 23 -54 11 -79 -46 -87 -37 -231 20 -346 87 -172 242 -240
445 -197 40 8 78 13 82 10 5 -3 20 -25 35 -50 14 -24 28 -44 31 -44 2 0 1 5
-3 12 -4 7 -3 8 5 4 6 -4 9 -11 6 -16 -7 -11 15 -60 27 -60 4 0 7 -3 6 -7 -1
-5 10 -39 24 -78 15 -38 31 -86 36 -105 l8 -35 14 64 c23 109 -11 289 -66 349
-11 11 -46 51 -79 88 -68 76 -183 194 -235 240 -61 53 -170 178 -170 194 0 6
-4 10 -8 10 -4 0 -14 15 -22 33 -7 17 -15 35 -18 40 -2 4 3 7 11 7 9 0 26 -17
38 -37 13 -21 25 -40 29 -43 3 -3 16 -22 30 -42 14 -21 65 -75 114 -120 124
-115 306 -302 328 -338 10 -17 20 -30 23 -30 12 0 -22 330 -36 344 -5 6 -9 35
-9 66 0 43 -7 71 -31 118 -17 34 -34 62 -39 62 -5 0 -11 8 -15 18 -3 9 -32 46
-65 82 -32 36 -73 94 -90 130 -17 36 -36 74 -42 84 -5 11 -11 29 -13 40 -1 12
-8 56 -14 99 -13 82 -8 128 10 96 5 -10 11 -32 13 -50 7 -54 25 -127 47 -192
20 -60 93 -177 110 -177 5 0 9 -4 9 -9 0 -5 13 -24 29 -43 16 -18 39 -44 50
-58 l21 -25 -8 35 c-4 19 -7 103 -7 185 0 146 9 214 41 315 8 25 21 68 29 95
21 78 56 148 66 138 6 -6 -2 -40 -20 -89 -74 -198 -99 -364 -81 -544 6 -63 14
-133 19 -155 l7 -40 7 30 c10 39 59 135 69 135 4 0 8 5 8 11 0 12 44 73 75
104 11 11 39 41 63 67 32 36 42 43 42 28 0 -10 -8 -27 -18 -37 -11 -10 -27
-33 -38 -50 -10 -18 -22 -33 -26 -33 -4 0 -8 -7 -8 -15 0 -7 -6 -18 -13 -22
-25 -15 -114 -167 -121 -206 -1 -7 -8 -38 -16 -69 -10 -46 -11 -69 -2 -110 7
-29 15 -88 18 -130 4 -43 10 -75 15 -73 4 3 12 28 18 55 6 27 22 73 36 102 14
28 25 55 25 60 0 4 8 17 18 28 17 21 52 76 74 118 6 12 18 22 25 22 18 0 10
-27 -29 -94 -16 -28 -34 -62 -41 -76 -6 -14 -14 -27 -17 -30 -11 -9 -49 -106
-60 -151 -24 -96 -35 -224 -27 -289 5 -36 9 -76 9 -90 0 -23 1 -22 18 10 16
29 52 122 55 140 0 3 6 15 13 28 7 12 10 26 7 31 -3 5 0 11 7 13 10 4 10 10 0
32 -7 17 -9 33 -4 43 8 13 10 13 15 -1 4 -10 3 -15 -3 -11 -12 8 -13 -5 -1
-24 7 -11 13 -7 25 18 9 17 13 31 9 31 -5 0 -3 4 3 8 6 4 18 21 27 38 12 24
13 34 4 44 -8 8 -8 11 -1 7 16 -9 38 19 30 38 -3 10 -2 13 4 10 16 -10 41 57
28 73 -8 10 -6 11 8 5 17 -6 17 -5 5 10 -12 15 -12 17 1 12 9 -4 20 7 31 31
10 20 16 39 13 41 -2 2 -7 -5 -11 -16 -3 -12 -11 -21 -16 -21 -6 0 -2 12 9 28
17 24 18 37 11 105 -4 43 -12 99 -18 125 -6 26 -20 88 -31 137 -42 181 -47
209 -49 243 -1 9 -8 8 -27 -4 -14 -9 -23 -22 -20 -29 2 -6 -2 -12 -10 -12 -7
0 -11 4 -8 9 14 23 -7 4 -32 -29 -15 -20 -22 -33 -14 -28 9 5 11 4 6 -4 -4 -6
-11 -9 -16 -6 -4 3 -18 -7 -30 -22 l-21 -28 5 40 c4 28 2 35 -4 25 -8 -12 -10
-11 -10 7 0 13 5 22 11 20 10 -2 19 22 46 131 5 21 7 22 29 7 25 -16 62 -20
80 -7 6 4 14 39 17 78 10 107 61 250 101 283 27 23 60 9 82 -36 l22 -43 22 51
c48 113 43 217 -18 333 -49 95 -155 202 -242 244 -122 59 -276 87 -393 71z
m191 -167 c186 -59 306 -240 273 -417 -6 -33 -24 -87 -40 -122 -33 -70 -90
-157 -98 -149 -3 3 -7 28 -9 56 -5 66 -25 104 -64 120 -17 7 -29 15 -26 17 2
3 15 -1 28 -7 l23 -12 -21 21 -21 22 -54 -25 c-62 -28 -94 -58 -86 -81 4 -8 3
-14 -1 -14 -20 3 -30 -3 -40 -26 -14 -31 -15 -46 -2 -25 6 9 10 10 10 3 0 -6
-5 -15 -10 -18 -6 -4 -7 -11 -4 -17 4 -6 2 -8 -3 -5 -14 9 -24 -18 -16 -40 5
-12 3 -14 -7 -8 -10 6 -12 4 -7 -8 3 -10 2 -17 -4 -17 -5 0 -9 -6 -7 -12 4
-20 -11 -68 -22 -68 -13 0 -29 63 -23 94 3 14 2 34 -2 43 -5 10 -7 22 -6 28 4
17 -21 135 -29 135 -4 0 -11 7 -14 16 -4 10 -2 13 7 7 7 -4 5 3 -4 17 -17 25
-59 44 -44 19 5 -8 4 -10 -4 -5 -6 4 -18 0 -27 -8 -9 -9 -19 -14 -24 -11 -15
9 -33 118 -33 200 -1 142 50 237 155 289 65 32 166 35 256 8z m-803 -523 c22
-6 102 -40 178 -75 95 -44 146 -63 160 -59 12 4 17 3 11 -2 -27 -20 -37 -63
-40 -171 -2 -62 0 -111 4 -108 4 2 6 -13 5 -35 -1 -21 2 -41 7 -44 5 -3 7 -12
3 -21 -3 -8 3 -22 13 -30 11 -9 13 -13 7 -9 -9 4 -13 -1 -13 -14 0 -12 4 -21
9 -21 7 0 8 -14 2 -38 -1 -1 -10 2 -21 8 -12 7 -33 7 -59 1 -31 -7 -43 -5 -55
7 -8 8 -35 17 -60 18 -47 3 -73 -13 -106 -65 -15 -22 -23 -24 -95 -24 -117 0
-177 29 -216 105 -42 83 -34 230 23 421 36 120 52 154 75 160 35 9 129 7 168
-4z m250 -1039 c4 -6 11 -7 17 -4 6 4 8 2 5 -3 -8 -13 100 -116 113 -108 6 4
10 3 9 -2 -4 -23 2 -35 16 -30 8 4 17 2 20 -3 3 -5 13 -7 23 -4 14 5 14 4 2
-4 -10 -8 -19 -7 -30 1 -8 6 -4 -1 9 -16 19 -21 27 -24 38 -15 10 8 17 8 26
-1 9 -10 8 -11 -4 -6 -30 11 -32 -16 -3 -46 l28 -29 -50 0 c-145 0 -254 106
-254 247 0 33 21 46 35 23z"/>
<path d="M13500 13641 c0 -6 -7 -7 -17 -4 -11 4 -14 3 -9 -5 5 -8 -1 -12 -19
-12 -14 0 -28 -7 -31 -15 -4 -8 -9 -13 -13 -11 -11 7 -136 -100 -133 -113 1
-7 -1 -10 -6 -7 -13 8 -83 -64 -75 -77 3 -6 1 -7 -5 -3 -6 3 -13 2 -17 -4 -4
-6 -11 -8 -16 -5 -5 4 -9 2 -9 -4 0 -5 -9 -13 -20 -16 -11 -3 -20 -11 -20 -16
0 -6 5 -7 12 -3 7 4 8 3 4 -4 -4 -6 -12 -9 -19 -6 -7 2 -22 -4 -32 -16 -10
-11 -14 -20 -10 -20 5 0 0 -7 -11 -15 -17 -13 -16 -14 15 -5 42 12 49 19 31
30 -8 6 -10 10 -4 10 5 0 15 -5 22 -12 23 -23 130 73 124 112 -2 12 -1 12 6 2
6 -10 19 0 48 35 45 55 62 72 122 114 54 38 79 28 31 -13 -19 -16 -27 -26 -19
-22 9 4 12 3 7 -2 -5 -5 -12 -9 -16 -9 -15 0 -81 -64 -131 -129 l-54 -68 45 8
c24 5 61 7 81 6 26 -1 54 8 90 29 96 55 180 90 240 101 53 9 80 7 66 -7 -3 -3
-32 -12 -64 -21 -63 -16 -214 -83 -214 -94 0 -4 35 -10 78 -14 42 -5 88 -9
102 -10 24 -3 61 -12 168 -43 30 -9 51 -20 49 -27 -4 -12 -36 -16 -52 -6 -5 4
-57 15 -115 24 -58 10 -127 22 -153 27 -64 12 -97 11 -97 -2 0 -14 111 -115
123 -111 4 1 6 -1 3 -6 -6 -10 33 -50 49 -51 6 -1 10 -5 10 -10 0 -12 47 -57
55 -53 3 2 6 -4 8 -12 2 -9 -1 -16 -6 -16 -14 0 -84 53 -121 93 -19 20 -39 33
-44 30 -6 -3 -7 -1 -3 5 6 11 -5 16 -26 13 -4 0 -5 5 -2 13 6 16 -44 58 -59
49 -5 -3 -7 -2 -4 4 3 5 -13 22 -36 37 -43 28 -50 29 -162 12 -11 -2 -29 -4
-40 -6 -15 -1 -16 -3 -5 -7 20 -6 159 -151 152 -158 -3 -3 0 -5 5 -5 6 0 14 6
16 13 3 6 6 8 6 2 0 -5 -3 -16 -8 -24 -7 -11 -14 -10 -39 7 -16 12 -32 18 -36
14 -4 -4 -6 -2 -5 3 4 13 -23 55 -35 55 -5 0 -1 -10 10 -21 19 -22 19 -22 -4
-8 -12 8 -20 19 -18 25 5 13 -37 55 -72 74 -15 7 -39 9 -63 5 -32 -6 -39 -10
-34 -23 5 -14 4 -15 -6 -4 -15 14 -49 16 -49 3 0 -4 15 -11 33 -14 73 -12 160
-65 251 -153 67 -66 90 -83 97 -73 8 13 13 6 10 -13 0 -4 10 -3 24 2 16 6 25
6 25 0 0 -6 -8 -10 -17 -11 -10 0 -13 -3 -6 -5 7 -3 21 0 32 6 34 18 28 66
-14 106 -19 18 -35 40 -35 48 0 24 38 19 72 -9 16 -14 34 -23 39 -19 5 3 9 2
8 -3 -4 -20 2 -27 12 -13 9 13 10 12 5 -3 -7 -22 80 -119 123 -137 43 -18 91
-9 110 20 9 14 11 21 4 16 -7 -4 -13 -3 -13 3 0 5 5 11 11 13 9 3 9 9 0 26 -7
14 -17 19 -29 16 -14 -5 -15 -4 -2 5 13 10 7 19 -34 57 -32 29 -55 43 -65 39
-8 -3 -12 -3 -8 1 10 10 -31 36 -45 28 -6 -4 -8 -3 -5 3 7 11 -44 53 -65 53
-7 1 1 7 17 14 21 9 34 10 43 3 10 -8 20 -7 34 2 16 10 19 10 16 0 -5 -15 80
-61 96 -52 6 3 8 3 4 -2 -12 -12 67 -44 127 -51 73 -9 132 26 119 70 -4 12 -2
16 5 12 17 -11 1 25 -23 52 -29 33 -91 63 -112 55 -11 -4 -15 -2 -11 4 8 13
-30 21 -133 28 -41 3 -76 8 -78 10 -7 7 82 27 136 31 57 3 102 25 102 49 0 19
-80 77 -97 71 -7 -3 -15 -1 -18 4 -4 6 -30 10 -60 10 -30 0 -56 -4 -60 -10 -3
-5 -12 -7 -20 -4 -7 3 -44 -6 -82 -19 -64 -23 -69 -24 -69 -7 0 10 3 18 6 18
19 -2 23 4 10 13 -12 8 -9 9 9 4 19 -6 23 -4 18 7 -4 11 1 14 18 11 16 -4 28
3 45 27 20 28 21 33 7 47 -18 18 -87 29 -87 14z"/>
<path d="M7051 13579 c-57 -77 -83 -122 -111 -195 -50 -128 -69 -239 -80 -454
-5 -107 -14 -213 -21 -235 -22 -80 -68 -162 -138 -248 -39 -48 -71 -93 -71
-99 0 -7 -5 -7 -14 1 -11 9 -15 3 -20 -32 -4 -25 -13 -53 -21 -63 -8 -11 -14
-26 -15 -34 0 -8 9 -1 19 16 12 19 41 42 75 59 31 15 56 29 56 32 0 6 -38 -6
-71 -22 l-27 -12 22 31 c41 60 111 146 119 146 4 0 5 4 2 10 -3 6 1 7 9 4 9
-3 16 -2 16 3 0 12 177 106 190 101 5 -2 -14 -40 -43 -84 -29 -45 -64 -102
-79 -128 -27 -45 -29 -46 -80 -48 -50 -1 -51 -2 -10 -5 23 -2 42 -8 42 -13 0
-5 -43 -98 -97 -207 -91 -188 -100 -201 -167 -265 -53 -50 -73 -64 -83 -56 -7
6 -13 16 -13 22 0 6 4 5 9 -3 7 -11 11 -9 20 7 10 19 9 21 -6 16 -10 -3 -5 2
11 11 24 15 27 21 22 48 -4 23 -3 28 4 17 5 -8 10 -13 11 -10 0 3 2 13 4 23 2
11 -5 22 -20 29 -34 15 -58 4 -51 -24 3 -13 3 -17 0 -10 -10 21 -32 13 -56
-19 -13 -17 -22 -34 -21 -37 1 -4 -5 -15 -14 -24 -8 -9 -12 -22 -7 -29 4 -7 3
-10 -4 -5 -12 7 -47 -76 -45 -106 1 -10 -3 -16 -9 -12 -6 4 -6 -2 1 -15 11
-19 1 -61 -15 -61 -2 0 0 9 6 21 7 11 9 23 6 26 -3 3 -9 -3 -12 -13 -4 -10
-16 -41 -26 -67 -10 -27 -14 -46 -8 -42 5 3 10 -1 10 -9 0 -9 -6 -13 -14 -10
-15 6 -30 -22 -19 -38 3 -6 1 -8 -5 -4 -11 6 -15 -4 -27 -63 l-7 -33 42 42
c56 56 99 165 96 242 -1 15 1 25 3 22 11 -11 27 81 17 95 -8 11 -8 13 1 8 8
-5 19 6 32 32 21 40 38 57 47 48 3 -3 0 -15 -6 -27 -10 -18 -9 -24 1 -31 11
-7 10 -9 -5 -9 -12 0 -16 -5 -12 -16 3 -8 2 -13 -2 -10 -5 3 -16 -21 -25 -52
-16 -57 -46 -202 -41 -202 1 0 9 6 16 13 18 19 132 96 136 93 11 -12 -26 -60
-70 -90 -71 -48 -88 -62 -88 -70 0 -4 4 -5 9 -2 5 4 22 1 37 -4 21 -8 29 -8
36 2 5 9 8 4 8 -14 0 -31 -12 -34 -56 -17 -38 14 -68 5 -109 -35 -19 -18 -35
-32 -37 -31 -2 2 -9 -3 -16 -11 -19 -21 7 -19 37 3 14 9 21 12 18 6 -9 -14 96
-3 105 11 5 8 8 7 8 -2 0 -7 5 -10 10 -7 17 11 11 -28 -19 -118 -26 -76 -107
-354 -142 -487 -11 -41 -12 -43 -22 -23 -9 22 -11 21 -44 -22 -19 -25 -31 -50
-27 -57 4 -7 3 -8 -5 -4 -12 8 -58 -41 -53 -56 1 -5 -1 -7 -5 -6 -16 5 -64
-35 -59 -49 3 -8 2 -12 -3 -9 -12 8 -33 -19 -23 -29 4 -5 2 -5 -5 -1 -14 8
-45 -33 -36 -47 3 -6 1 -7 -4 -4 -15 9 -36 -19 -27 -35 5 -10 4 -11 -6 -1 -15
13 -6 46 120 446 27 87 51 175 52 195 2 20 7 40 11 43 5 3 7 19 5 35 -3 25 -7
20 -26 -36 -12 -36 -42 -123 -67 -194 -24 -71 -42 -132 -40 -137 3 -4 1 -9 -4
-11 -5 -1 -28 -70 -51 -152 -36 -128 -41 -153 -30 -170 12 -19 11 -20 -3 -8
-13 12 -17 6 -27 -45 -19 -99 -25 -103 -39 -27 -17 94 -46 193 -88 294 -85
205 -83 274 12 448 20 35 32 68 29 74 -4 6 -3 8 3 5 13 -8 46 50 37 65 -4 6
-3 8 3 5 10 -6 58 92 49 101 -9 9 -118 -167 -110 -179 4 -8 3 -10 -4 -5 -14 8
-66 -90 -56 -106 4 -7 3 -8 -4 -4 -7 4 -12 1 -12 -8 0 -9 -4 -16 -9 -16 -11 0
-8 28 20 180 22 121 23 144 8 135 -6 -4 -8 -14 -5 -22 3 -8 2 -12 -3 -9 -10 7
-43 -82 -36 -94 3 -5 1 -10 -5 -12 -20 -6 -43 -152 -43 -268 0 -103 3 -125 33
-212 18 -54 36 -95 41 -92 5 3 6 -3 2 -12 -5 -13 -3 -15 7 -9 8 5 11 4 6 -3
-4 -6 4 -37 18 -69 35 -84 54 -155 73 -268 16 -100 18 -153 14 -425 l-2 -145
-66 132 c-37 73 -71 130 -76 126 -6 -3 -7 -1 -3 5 9 14 -68 205 -79 195 -4 -4
-5 -3 -2 3 6 10 -47 177 -54 169 -2 -2 -5 6 -5 18 -1 12 -13 67 -27 122 -53
207 -57 346 -15 510 11 44 21 90 22 102 1 12 3 19 5 17 8 -7 91 228 84 239 -3
6 -1 7 5 3 8 -4 12 0 12 11 0 11 4 23 9 29 5 5 19 37 31 72 18 49 20 66 11 75
-9 9 -16 7 -31 -13 -10 -13 -16 -29 -13 -34 3 -5 1 -6 -5 -2 -12 7 -65 -68
-65 -91 0 -7 -4 -10 -8 -8 -10 7 -20 -25 -12 -37 3 -6 2 -8 -4 -5 -10 6 -42
-58 -77 -158 l-21 -60 -8 95 c-9 100 5 337 23 400 5 19 10 44 10 55 -1 39 -38
-22 -66 -108 -37 -115 -42 -294 -16 -512 12 -100 18 -192 15 -246 -7 -122 19
-299 58 -394 7 -16 11 -36 10 -44 -1 -7 1 -11 6 -8 4 3 9 -5 9 -17 1 -12 11
-43 23 -68 23 -51 25 -58 13 -58 -4 0 -18 20 -31 45 -22 41 -32 50 -54 46 -5
-1 -6 3 -2 9 3 6 11 7 18 3 12 -7 -32 69 -46 78 -5 3 -7 8 -5 11 6 9 -36 77
-45 71 -6 -3 -7 -2 -4 4 4 6 -14 60 -38 122 -94 232 -120 388 -112 666 6 215
11 236 82 345 25 39 45 72 45 74 0 2 13 18 30 36 16 18 27 37 23 43 -3 5 -1 7
4 4 14 -9 37 19 27 34 -4 7 -3 9 4 5 6 -3 24 10 41 31 23 28 28 40 20 55 -5
10 -14 18 -19 18 -14 0 -50 -52 -43 -63 3 -5 2 -7 -4 -4 -5 4 -20 -6 -33 -21
-13 -15 -41 -46 -62 -70 -22 -24 -36 -48 -32 -54 5 -7 3 -8 -5 -4 -8 5 -14 0
-18 -13 -3 -11 -8 -19 -12 -16 -4 2 5 71 21 152 15 81 30 166 33 188 3 22 12
73 20 114 14 71 13 97 -5 86 -12 -7 -84 -230 -114 -350 -39 -157 -57 -296 -63
-490 -5 -163 -2 -225 23 -425 5 -43 5 -44 -11 -25 -9 11 -21 19 -27 17 -6 -2
-8 4 -5 12 7 17 -67 119 -78 108 -5 -4 -5 -2 -2 4 4 6 -4 23 -18 38 -13 14
-22 26 -19 26 3 0 -11 19 -30 42 -69 80 -112 265 -103 447 4 100 9 126 35 188
33 79 59 128 80 155 8 9 11 23 6 30 -4 7 -3 9 1 5 10 -9 97 121 90 133 -3 5 1
11 7 13 7 3 8 6 3 6 -30 2 -166 -224 -216 -358 -41 -108 -51 -259 -25 -360 21
-82 21 -98 1 -81 -9 7 -13 15 -11 18 3 2 -3 21 -14 41 -33 65 -52 150 -69 307
-9 85 -20 156 -26 157 -31 7 -27 -221 6 -353 24 -95 69 -211 80 -204 5 3 6 -1
4 -9 -3 -7 7 -31 22 -53 16 -21 34 -50 41 -64 7 -14 25 -38 39 -55 14 -16 22
-24 18 -16 -6 9 -4 12 4 7 6 -4 9 -12 5 -17 -3 -5 28 -53 68 -107 158 -208
195 -267 223 -354 10 -34 22 -55 28 -51 6 3 7 1 3 -6 -9 -15 3 -53 15 -46 5 3
6 0 3 -8 -6 -18 65 -169 77 -161 5 3 7 -1 4 -8 -7 -18 59 -133 76 -133 8 0 13
-9 12 -19 0 -10 23 -59 53 -108 30 -50 53 -92 51 -94 -2 -2 -16 10 -32 26 -29
30 -53 41 -39 18 6 -10 3 -9 -8 0 -9 8 -15 19 -12 26 8 20 -240 220 -263 211
-7 -2 -15 1 -19 7 -4 7 -3 8 4 4 7 -4 12 -1 12 7 0 20 -78 89 -92 81 -6 -4 -8
-3 -4 4 3 6 -25 35 -68 67 -42 31 -89 74 -107 96 -17 21 -35 36 -40 33 -5 -3
-8 -2 -7 3 2 4 -14 36 -35 69 -46 76 -64 125 -85 231 -10 45 -21 83 -27 83
-17 0 -17 -102 -1 -181 17 -80 86 -226 105 -221 7 1 10 -2 7 -7 -8 -12 42 -71
57 -68 6 1 11 -4 12 -11 0 -7 11 -22 25 -32 14 -10 23 -21 20 -23 -10 -9 -145
37 -157 54 -17 23 -113 94 -124 92 -5 -2 -8 0 -7 5 4 12 -110 114 -121 107 -7
-3 -8 0 -5 10 4 8 1 22 -6 30 -11 14 -15 13 -34 -2 -21 -18 -21 -18 -3 3 15
18 16 26 6 48 -7 14 -15 26 -18 26 -4 0 -7 8 -8 18 0 9 -8 49 -17 87 -10 43
-16 117 -16 192 0 171 -26 178 -50 14 -15 -98 -8 -194 20 -282 24 -77 76 -163
92 -153 7 5 8 3 3 -5 -8 -14 33 -63 46 -55 5 3 6 -2 3 -10 -3 -9 -2 -16 2 -16
5 0 23 -13 39 -28 17 -15 41 -35 55 -45 l24 -17 -29 0 c-61 0 -216 39 -266 66
-57 32 -90 69 -112 129 -8 22 -18 49 -22 60 -8 20 -10 34 -23 168 -4 37 -11
68 -17 69 -17 2 -25 -93 -15 -170 19 -140 98 -251 220 -309 77 -37 130 -54
270 -87 58 -14 131 -34 164 -45 32 -12 63 -18 70 -14 6 3 8 3 4 -2 -4 -4 27
-23 68 -41 109 -47 112 -56 17 -55 -60 0 -155 -18 -208 -40 -16 -7 -32 -13
-35 -14 -34 -9 -49 -18 -44 -27 4 -7 2 -8 -5 -4 -15 10 -92 -25 -84 -37 3 -6
1 -7 -5 -3 -15 9 -135 -67 -125 -79 5 -4 3 -5 -3 -2 -17 10 -176 -114 -163
-127 4 -4 36 11 73 32 36 21 63 42 59 46 -4 4 1 4 11 0 15 -6 17 -4 11 6 -5 9
-4 11 3 6 15 -9 54 12 47 24 -4 6 1 7 11 3 13 -5 15 -3 9 7 -5 8 -4 11 3 6 6
-4 42 9 80 28 38 19 115 51 173 71 86 31 122 38 210 42 68 4 125 1 157 -7 78
-18 203 -113 376 -285 45 -44 86 -80 91 -80 6 0 10 -4 10 -10 1 -20 26 -55 38
-52 7 1 11 -4 9 -11 -3 -14 93 -208 117 -236 9 -11 10 -16 4 -12 -9 5 -11 2
-7 -8 3 -9 11 -13 17 -9 6 3 7 1 3 -5 -4 -7 9 -55 29 -108 63 -167 112 -385
161 -716 6 -38 23 -48 50 -30 13 8 4 83 -36 297 -12 66 -24 165 -25 220 -2 85
-36 272 -62 345 -11 32 -1 189 17 268 11 45 44 136 74 201 39 89 51 123 42
131 -8 8 -8 11 2 8 21 -5 39 29 24 44 -10 10 -16 7 -30 -12 -9 -14 -16 -28
-14 -32 1 -5 -3 -8 -9 -8 -5 0 -7 -5 -3 -12 4 -7 3 -8 -4 -4 -14 8 -36 -30
-26 -46 4 -7 3 -8 -4 -4 -7 4 -21 -13 -37 -44 -14 -27 -22 -50 -18 -50 5 0 3
-4 -4 -8 -14 -9 -50 -113 -59 -172 -9 -58 -24 -31 -24 46 0 159 36 405 75 505
14 34 22 66 19 71 -3 4 -1 7 4 6 5 -2 25 20 44 47 24 34 54 61 93 83 32 18 64
40 71 50 24 33 25 3 5 -100 -46 -227 -63 -370 -68 -599 -6 -238 2 -349 37
-517 45 -213 148 -452 261 -602 62 -82 216 -235 280 -277 40 -27 50 -43 24
-43 -8 0 -60 -10 -115 -21 l-101 -22 44 -41 c25 -23 49 -50 54 -61 32 -66 19
-166 -29 -221 -38 -43 -54 -52 -118 -64 -136 -26 -239 53 -240 183 0 46 29
122 54 140 6 5 -7 6 -29 2 -87 -14 -845 -208 -873 -224 -7 -4 220 -77 535
-170 301 -90 566 -169 588 -176 22 -7 173 -52 335 -100 162 -48 450 -133 640
-190 190 -56 478 -142 640 -190 162 -48 518 -154 790 -235 272 -82 599 -178
725 -215 252 -73 487 -142 784 -230 214 -64 179 -62 341 -15 36 10 164 46 285
80 277 77 595 166 660 185 68 20 542 153 752 211 95 27 169 51 165 55 -9 9
-619 259 -831 340 l-24 10 29 30 c46 48 140 107 184 114 38 6 57 25 25 25 -22
0 -147 52 -285 118 -152 74 -292 122 -354 122 -65 0 -103 -19 -166 -85 -67
-69 -116 -96 -191 -102 -70 -7 -141 9 -240 53 -97 43 -125 48 -177 34 -61 -16
-103 -58 -186 -184 -76 -114 -176 -223 -195 -212 -6 4 -15 24 -21 45 -13 48 4
100 63 191 46 71 58 86 160 199 38 42 78 88 88 103 l19 26 -87 32 c-145 53
-355 127 -581 205 l-213 74 -78 -60 -78 -59 -55 25 c-154 71 -371 89 -532 46
-44 -11 -80 -21 -80 -21 -1 0 -2 37 -2 83 -1 45 -3 90 -5 101 -3 15 8 23 56
40 183 67 306 145 440 280 153 155 260 328 329 537 43 129 56 205 56 339 0
339 -194 613 -565 798 -322 162 -753 247 -1070 213 -266 -29 -440 -94 -620
-231 -182 -138 -300 -313 -367 -546 -20 -69 -23 -101 -23 -254 0 -136 4 -193
19 -255 61 -263 213 -512 411 -675 155 -128 408 -242 600 -272 62 -10 79 -16
86 -32 17 -39 78 -310 72 -319 -10 -16 -110 0 -168 27 -37 17 -88 56 -156 123
l-101 98 4 -92 c4 -90 3 -93 -17 -93 -28 0 -132 -36 -162 -55 -12 -8 -27 -15
-33 -15 -19 0 -336 158 -442 221 -391 230 -664 554 -781 925 -75 236 -77 518
-6 735 86 265 296 539 568 742 254 190 601 341 944 411 179 37 275 46 469 46
320 1 550 -55 818 -197 556 -294 947 -798 1030 -1328 12 -78 15 -318 4 -337
-5 -9 -4 -10 3 -3 11 11 73 204 73 227 0 9 22 21 54 31 110 35 241 146 305
259 l28 49 18 -73 c82 -338 231 -585 405 -671 57 -28 74 -32 150 -32 145 0
193 26 300 165 19 25 46 58 60 73 14 16 58 74 98 130 l74 102 -6 76 c-4 42
-13 99 -21 125 -8 27 -15 50 -15 52 0 1 8 2 18 2 10 0 27 6 38 14 19 14 22 12
42 -29 32 -66 88 -123 127 -131 l34 -6 -6 -104 c-6 -98 -4 -108 22 -169 28
-66 59 -98 107 -110 l26 -7 -41 -79 c-69 -132 -60 -246 24 -308 31 -23 121
-50 169 -51 25 0 25 -1 26 -88 1 -112 24 -166 89 -216 26 -19 63 -38 82 -42
50 -9 125 2 172 26 23 11 41 19 42 18 0 -2 3 -34 5 -73 8 -121 34 -175 107
-221 20 -13 37 -30 37 -38 0 -23 67 -74 105 -82 47 -9 108 2 179 31 33 13 61
23 63 22 1 -2 -4 -21 -12 -44 -20 -59 -5 -107 55 -164 44 -43 135 -89 176 -89
13 0 14 -6 7 -32 -4 -18 -8 -64 -7 -103 0 -81 25 -141 74 -176 35 -27 43 -45
30 -67 -9 -14 -10 -12 -5 8 5 22 4 23 -5 7 -7 -10 -9 -25 -6 -33 3 -8 1 -14
-4 -14 -18 0 -11 -51 11 -81 15 -22 24 -27 33 -20 9 7 16 7 24 -1 9 -9 18 -6
37 12 25 24 35 47 13 34 -7 -4 -8 -3 -4 5 4 6 12 9 17 6 14 -9 29 38 16 53
-16 20 13 43 61 49 l40 5 -10 -43 c-12 -53 -4 -144 14 -166 7 -9 12 -19 11
-22 -2 -3 0 -6 5 -6 13 0 32 -16 32 -28 0 -6 -7 -2 -15 9 -8 10 -15 14 -15 8
0 -21 25 -35 39 -21 10 9 11 8 6 -5 -10 -26 29 -24 66 3 28 20 42 48 17 33 -7
-4 -5 2 5 14 10 11 21 40 23 64 5 51 -15 168 -30 168 -5 0 -6 3 -3 6 3 4 2 14
-3 23 -5 10 -6 22 -2 28 8 11 44 14 37 3 -12 -20 76 -160 98 -156 24 3 36 17
32 35 -4 21 2 21 141 0 82 -12 105 -9 220 26 21 6 21 5 13 -41 -5 -26 -7 -49
-5 -52 8 -7 28 79 22 94 -3 7 7 23 22 35 23 18 27 19 30 5 4 -17 14 -21 25 -9
4 3 2 12 -3 18 -13 16 -2 45 16 45 7 0 20 12 28 28 8 15 23 38 35 51 11 13 18
27 15 32 -7 12 26 17 166 24 69 4 182 12 253 18 l127 12 -18 35 c-26 50 -92
120 -107 114 -7 -3 -16 -1 -20 5 -4 7 0 8 11 4 14 -5 16 -3 11 11 -6 14 -3 16
14 11 12 -4 27 -8 33 -9 6 -1 17 -5 24 -9 6 -5 17 -5 22 -2 6 3 10 2 10 -3 0
-12 80 -43 93 -35 6 3 7 1 3 -5 -5 -8 0 -12 13 -12 11 0 22 -4 25 -9 6 -9 72
-27 137 -36 34 -5 92 4 131 20 12 5 17 1 20 -17 5 -36 55 -55 174 -63 113 -8
131 -2 119 34 -6 18 -12 21 -41 15 -39 -7 -87 2 -79 16 9 14 -50 40 -93 40
-25 0 -47 7 -62 20 -13 11 -26 20 -29 21 -3 0 -18 2 -33 4 -16 2 -28 0 -28 -5
0 -5 -55 19 -122 53 -68 35 -167 76 -220 92 -63 19 -98 34 -98 43 0 28 118 -8
288 -89 l83 -39 33 25 c18 14 37 25 42 25 5 0 2 -4 -6 -10 -12 -7 -11 -12 8
-28 12 -10 19 -22 16 -25 -4 -3 3 -5 14 -4 11 0 18 5 16 9 -3 4 0 8 7 8 7 0 9
9 6 22 -6 20 -4 20 19 -5 28 -30 94 -39 94 -13 0 24 -41 46 -85 46 -24 0 -50
8 -65 20 -14 11 -33 20 -42 20 -9 0 -30 11 -46 25 -17 14 -44 30 -61 36 -17 6
-28 15 -25 20 3 5 0 9 -5 9 -6 0 -11 -5 -11 -11 0 -5 -5 -7 -10 -4 -6 4 -8 10
-5 15 7 11 -21 21 -42 14 -15 -5 -16 -4 -3 5 13 9 13 11 0 11 -12 0 -12 2 0
14 12 11 27 12 74 5 33 -6 91 -9 130 -7 57 2 71 6 74 20 2 12 -8 20 -40 28
-52 14 -78 36 -78 64 0 25 -20 61 -20 37 0 -8 -2 -12 -5 -9 -3 3 -3 13 1 22 7
17 33 18 47 1 6 -6 10 -6 14 3 2 6 11 12 19 12 10 0 13 -7 8 -25 -6 -25 9 -35
22 -14 4 6 19 8 38 5 68 -14 95 -14 106 -1 16 19 -14 38 -51 33 -21 -3 -48 3
-80 19 -27 14 -55 26 -61 27 -7 2 -35 13 -61 24 -27 12 -57 22 -67 22 -10 0
-22 5 -25 10 -3 6 -20 10 -36 10 -17 0 -28 -4 -24 -9 3 -5 0 -13 -6 -17 -7 -4
-9 -3 -5 4 3 6 -3 17 -14 25 -19 13 -18 15 22 33 60 26 125 95 134 139 9 49
-3 108 -21 101 -9 -3 -12 0 -9 9 3 8 -10 22 -33 37 -36 22 -58 53 -29 42 25
-10 69 40 72 81 4 42 -11 79 -28 69 -6 -4 -8 -3 -5 3 7 11 -18 37 -42 45 -8 2
-15 12 -17 21 -1 9 1 15 5 13 11 -7 43 53 35 66 -4 7 -3 8 4 4 14 -8 27 53 17
82 -7 26 -85 64 -122 62 -16 -1 -31 -2 -35 -1 -5 1 12 29 37 63 25 34 43 68
41 75 -4 9 -1 11 6 7 7 -5 9 -2 5 8 -3 9 -1 20 4 25 14 14 -13 76 -42 97 -30
21 -133 21 -173 1 -21 -11 -32 -13 -40 -5 -8 8 -5 9 9 4 18 -7 19 -6 5 11 -8
10 -10 16 -3 12 17 -11 27 11 12 29 -10 12 -9 13 3 9 16 -6 30 18 47 83 14 49
0 97 -25 88 -9 -4 -12 -2 -8 5 4 8 -1 9 -16 4 -16 -5 -20 -4 -16 4 5 8 -8 11
-44 10 -53 -2 -70 8 -70 43 0 9 -4 19 -8 22 -5 3 -7 19 -4 36 3 24 1 30 -14
30 -15 0 -16 2 -5 9 11 7 10 14 -5 37 -11 15 -30 51 -44 78 -14 28 -31 51 -37
51 -6 0 -15 4 -20 9 -5 5 -3 6 5 2 6 -4 12 -4 12 1 0 24 -185 167 -206 159 -8
-3 -16 0 -20 6 -4 7 -3 8 4 4 7 -4 12 -5 12 -2 0 2 -41 25 -91 51 -77 39 -93
44 -107 33 -15 -11 -15 -11 -4 4 10 13 10 17 0 22 -11 5 -11 7 0 12 10 5 10 9
0 22 -12 15 -11 15 4 4 14 -11 21 -11 45 2 43 22 138 108 137 123 -1 7 2 11 6
8 10 -6 52 41 89 100 41 65 75 176 67 218 -4 24 -3 28 4 17 8 -11 9 -1 4 35
-18 146 -84 244 -210 315 -39 23 -140 61 -152 58 -4 -1 -25 4 -47 10 -64 18
-204 24 -275 13 -36 -6 -80 -13 -99 -16 -19 -3 -40 -10 -46 -15 -7 -6 -15 -7
-18 -4 -4 4 -18 -1 -31 -10 -31 -20 -40 -20 -33 -2 3 7 1 18 -5 24 -6 6 -6 12
1 17 6 3 11 3 10 -2 -3 -20 2 -25 16 -13 15 13 21 45 7 36 -5 -3 -9 1 -9 9 0
11 4 12 14 4 10 -9 18 -6 33 12 11 13 17 30 15 37 -3 7 -1 11 3 8 5 -3 18 17
30 45 23 52 28 74 12 49 -5 -8 -10 -10 -10 -5 0 6 7 21 16 34 33 46 7 186 -30
164 -5 -3 -6 -1 -2 6 4 6 12 8 18 5 6 -4 8 -1 6 7 -3 8 -11 13 -17 11 -7 -1
-9 2 -6 8 8 14 -34 62 -47 54 -5 -3 -7 0 -6 6 4 15 -89 68 -133 78 -53 10
-248 5 -263 -7 -7 -6 -16 -8 -19 -5 -3 4 -58 -11 -122 -31 -83 -27 -113 -41
-103 -47 10 -7 8 -8 -5 -4 -18 6 -121 -36 -132 -53 -3 -6 3 -14 12 -20 10 -6
13 -11 6 -11 -6 0 -14 4 -18 9 -3 6 -13 8 -23 6 -24 -4 -122 -66 -122 -76 0
-12 14 -11 27 2 8 8 13 7 18 -3 5 -7 5 -10 0 -6 -4 4 -14 3 -22 -3 -9 -9 -17
-8 -27 0 -10 9 -17 7 -27 -6 -12 -14 -12 -16 0 -8 10 6 12 4 7 -4 -5 -7 -11
-10 -14 -7 -9 9 -32 -15 -25 -27 3 -5 2 -7 -4 -4 -13 8 -85 -67 -111 -116
l-20 -38 -22 65 c-35 105 -123 228 -151 210 -7 -4 -10 -3 -5 4 6 10 -30 38
-44 34 -3 -1 -15 1 -28 5 -61 15 -169 -64 -219 -161 -23 -46 -26 -48 -56 -42
-171 37 -255 23 -297 -47 -35 -56 -20 -122 36 -166 l27 -21 -43 -40 c-24 -22
-44 -39 -45 -38 0 2 -24 32 -53 68 -96 121 -198 181 -322 188 -130 8 -257 -38
-395 -142 -73 -55 -191 -166 -238 -225 -15 -18 -29 -32 -31 -30 -2 2 -25 54
-51 114 -90 208 -133 283 -210 359 -143 143 -308 192 -509 151 -88 -18 -180
-53 -246 -94 l-48 -30 -43 66 c-24 36 -48 71 -54 77 -6 6 -45 58 -87 116 -280
386 -640 763 -1013 1060 -397 315 -769 399 -1080 243 -139 -69 -293 -203 -417
-365 -34 -42 -70 -80 -82 -84 -12 -4 -56 -24 -98 -45 -48 -23 -75 -32 -71 -23
3 8 0 14 -7 14 -6 0 -8 5 -4 11 4 8 9 7 15 -2 8 -11 12 -11 23 4 8 10 52 58
97 106 46 48 109 116 139 151 30 35 72 83 94 107 21 24 36 43 33 43 -3 0 7 12
21 28 15 15 44 47 64 72 21 25 64 74 97 110 34 36 59 71 56 78 -3 7 -1 11 4 8
12 -8 61 43 61 62 0 10 -23 -7 -56 -41 -30 -31 -53 -61 -49 -67 4 -6 3 -9 -2
-8 -5 2 -20 -9 -34 -23 -38 -41 -123 -140 -136 -160 -7 -9 -28 -33 -46 -51
-19 -19 -47 -52 -63 -74 -16 -21 -39 -49 -52 -62 -13 -12 -20 -27 -17 -32 4
-6 2 -9 -2 -8 -9 3 -95 -85 -185 -186 -41 -46 -54 -37 -26 19 26 54 36 125 48
345 11 202 31 309 75 405 16 33 27 63 27 68 -1 4 1 7 6 7 4 0 16 17 27 38 11
20 30 52 44 70 13 18 22 35 19 37 -2 3 -15 -9 -27 -26z m3386 -2198 c93 -67
134 -136 206 -347 57 -165 93 -237 128 -258 58 -34 86 -10 194 164 141 226
324 334 487 286 118 -34 212 -124 270 -258 34 -78 35 -104 6 -119 -29 -15 -64
-51 -60 -62 1 -5 -2 -6 -8 -2 -5 3 -10 1 -10 -4 0 -19 -22 -12 -46 15 -14 14
-29 22 -36 18 -7 -4 -8 -3 -4 4 10 17 -37 36 -67 28 -26 -6 -116 -87 -118
-106 -2 -13 -4 -21 -12 -40 -3 -8 -9 -27 -14 -42 -4 -15 -24 -37 -43 -50 -19
-13 -48 -45 -64 -72 -27 -43 -31 -58 -32 -130 -1 -82 -15 -136 -34 -136 -25 0
-60 -49 -60 -84 0 -31 8 -41 114 -125 63 -50 136 -116 164 -146 102 -116 155
-273 136 -411 l-9 -69 -70 -34 c-325 -157 -540 -122 -623 101 -11 30 -36 145
-56 256 -20 112 -41 212 -46 222 -6 11 -22 23 -36 26 -34 9 -102 -15 -120 -40
-8 -12 -37 -55 -64 -96 -58 -88 -128 -162 -189 -201 -25 -16 -48 -29 -51 -29
-3 0 -3 33 1 73 16 154 5 431 -21 551 -7 34 -5 43 21 79 47 64 38 102 -34 148
-36 23 -41 32 -91 184 -46 137 -111 293 -181 437 -15 31 -16 40 -5 53 37 44
379 243 421 245 9 0 34 -13 56 -29z m-1775 -1297 c164 -36 322 -144 378 -259
21 -42 25 -64 25 -140 0 -74 -4 -98 -23 -133 -116 -219 -464 -333 -782 -257
-102 25 -222 88 -284 149 -78 79 -111 152 -111 246 1 127 54 216 183 300 80
53 188 92 298 110 77 12 224 5 316 -16z m58 -1717 c0 -19 -45 -125 -73 -173
-73 -124 -168 -206 -253 -220 l-42 -6 -10 48 c-9 42 -35 198 -46 270 -3 21 3
22 98 29 56 4 148 17 206 30 58 12 108 23 113 24 4 0 7 -1 7 -2z m-936 -667
c22 -18 20 -85 -4 -136 -24 -49 -107 -130 -142 -139 -36 -9 -75 10 -94 46 -21
41 -21 116 0 157 19 36 73 80 112 91 35 9 108 -1 128 -19z"/>
<path d="M16650 13220 c-102 -49 -162 -99 -365 -305 -236 -239 -296 -280 -701
-480 -160 -79 -329 -167 -375 -195 -341 -212 -512 -448 -550 -763 -34 -279 86
-569 343 -828 242 -244 541 -408 804 -441 288 -37 652 111 884 360 177 189
235 394 260 922 21 443 42 560 155 870 79 214 102 297 111 395 12 133 -37 254
-150 366 -84 84 -164 122 -269 126 -75 4 -87 2 -147 -27z m225 -95 c93 -25
173 -94 223 -195 25 -51 27 -64 27 -175 -1 -110 -4 -128 -34 -215 -19 -52
-102 -232 -186 -400 -84 -168 -160 -329 -169 -359 -21 -73 -20 -163 5 -301 27
-150 30 -356 6 -453 -39 -158 -136 -325 -256 -446 -126 -125 -295 -190 -493
-191 -154 0 -290 36 -471 126 -185 92 -290 166 -417 293 -311 312 -353 674
-119 1023 55 83 216 241 307 301 101 67 184 108 347 167 177 65 235 92 310
145 67 48 248 231 369 373 155 181 307 290 435 312 25 4 48 8 51 9 3 0 32 -6
65 -14z"/>
<path d="M15901 11954 c-138 -37 -282 -143 -378 -278 -219 -308 -183 -667 79
-802 44 -23 69 -28 149 -32 170 -7 300 48 440 188 146 145 218 295 227 473 7
153 -24 259 -105 348 -93 103 -258 144 -412 103z m197 -204 c63 -39 33 -119
-61 -164 -64 -31 -114 -40 -171 -32 -93 14 -114 82 -47 146 49 46 107 68 186
69 43 1 69 -5 93 -19z"/>
<path d="M14470 7412 c0 -5 12 -18 26 -31 14 -12 36 -44 48 -71 21 -45 24 -48
38 -33 14 13 16 13 15 1 -1 -8 12 -32 30 -54 18 -21 60 -74 93 -117 34 -42 66
-75 71 -72 5 4 6 0 3 -8 -3 -8 7 -25 23 -38 16 -13 29 -28 30 -33 1 -9 119
-143 178 -201 22 -21 33 -36 25 -31 -8 4 4 -11 27 -33 23 -23 39 -41 35 -41
-4 0 0 -6 8 -13 9 -7 22 -21 30 -33 28 -40 220 -248 220 -238 0 6 -138 177
-189 234 -17 19 -31 39 -31 44 0 4 -7 5 -16 2 -9 -3 -12 -2 -9 5 7 11 4 16
-68 92 -25 27 -46 50 -46 53 0 5 -68 79 -114 126 -15 15 -25 28 -21 28 3 0
-25 35 -63 78 -38 42 -84 97 -103 122 -19 25 -42 53 -52 63 -16 16 -24 37 -14
37 2 0 28 -13 58 -30 31 -16 66 -30 79 -32 13 -2 29 -7 35 -11 6 -3 56 -14
110 -22 55 -9 109 -19 122 -22 12 -3 22 -1 22 4 0 4 -46 17 -102 27 -153 27
-218 45 -268 74 -25 14 -47 26 -50 26 -9 0 -62 49 -114 104 -48 50 -66 62 -66
44z"/>
</g>
</svg>
